<svg width="1440" height="758" viewBox="0 0 1440 758" fill="none" xmlns="http://www.w3.org/2000/svg">
<path d="M1.07812 -544.652H443.41M1.07812 -544.652V-190.788M1.07812 -544.652L222.244 -367.72M443.41 -544.652H885.742M443.41 -544.652L576.11 -367.72M1.07812 -190.788V163.076M1.07812 -190.788L222.244 -84.6288M222.244 -367.72L443.41 -190.788M222.244 -367.72V-84.6288M222.244 -367.72H576.11M885.742 -544.652H1328.07M885.742 -544.652L929.975 -367.72M576.11 -367.72L708.809 -190.788M576.11 -367.72H929.975M1.07812 163.076V516.94M1.07812 163.076L222.244 198.462M222.244 -84.6288L443.41 21.5303M222.244 -84.6288V198.462M1.07812 516.94V870.804M1.07812 516.94L222.244 481.553M222.244 198.462L443.41 233.849M222.244 198.462V481.553M1.07812 870.804V1224.67M1.07812 870.804L222.244 764.644M222.244 481.553L443.41 446.167M222.244 481.553V764.644M1.07812 1224.67H443.41M1.07812 1224.67L222.244 1047.74M222.244 764.644V1047.74M222.244 764.644L443.41 658.485M443.41 1224.67H885.742M443.41 1224.67L576.11 1047.74M885.742 1224.67H1328.07M885.742 1224.67L929.975 1047.74M576.11 1047.74H222.244M576.11 1047.74L708.809 870.804M576.11 1047.74H929.975M222.244 1047.74L443.41 870.804M1328.07 -544.652H1770.41M1328.07 -544.652L1283.84 -367.72M929.975 -367.72L974.208 -190.788M929.975 -367.72H1283.84M1328.07 1224.67H1770.41M1328.07 1224.67L1283.84 1047.74M929.975 1047.74L974.208 870.804M929.975 1047.74H1283.84M1770.41 -544.652H2212.74M1770.41 -544.652L1637.71 -367.72M1283.84 -367.72L1239.61 -190.788M1283.84 -367.72H1637.71M1770.41 1224.67H2212.74M1770.41 1224.67L1637.71 1047.74M1283.84 1047.74L1239.61 870.804M1283.84 1047.74H1637.71M2212.74 -544.652V-190.788M2212.74 -544.652L1991.57 -367.72M1637.71 -367.72H1991.57M1637.71 -367.72L1505.01 -190.788M2212.74 1224.67V870.804M2212.74 1224.67L1991.57 1047.74M1637.71 1047.74H1991.57M1637.71 1047.74L1505.01 870.804M2212.74 -190.788V163.076M2212.74 -190.788L1991.57 -84.6288M1991.57 -367.72V-84.6288M1991.57 -367.72L1770.41 -190.788M2212.74 163.076V516.94M2212.74 163.076L1991.57 198.462M1991.57 -84.6288L1770.41 21.5303M1991.57 -84.6288V198.462M2212.74 516.94V870.804M2212.74 516.94L1991.57 481.553M1991.57 198.462L1770.41 233.849M1991.57 198.462V481.553M2212.74 870.804L1991.57 764.644M1991.57 481.553V764.644M1991.57 481.553L1770.41 446.167M1991.57 764.644V1047.74M1991.57 764.644L1770.41 658.485M1991.57 1047.74L1770.41 870.804M443.41 -190.788L664.576 -13.8561M443.41 -190.788V21.5303M443.41 -190.788H708.809M1770.41 -190.788V21.5303M1770.41 -190.788L1549.24 -13.8561M1770.41 -190.788H1505.01M1770.41 870.804L1549.24 693.872M1770.41 870.804V658.485M1770.41 870.804H1505.01M443.41 870.804H708.809M443.41 870.804L664.576 693.872M443.41 870.804V658.485M664.576 -13.8561L885.742 163.076M664.576 -13.8561V127.689M664.576 -13.8561H841.509M443.41 21.5303L664.576 127.689M443.41 21.5303V233.849M708.809 -190.788L841.509 -13.8561M708.809 -190.788H974.208M1770.41 21.5303L1549.24 127.689M1770.41 21.5303V233.849M1549.24 -13.8561L1328.07 163.076M1549.24 -13.8561V127.689M1549.24 -13.8561H1372.31M1505.01 -190.788L1372.31 -13.8561M1505.01 -190.788H1239.61M1549.24 693.872L1328.07 516.94M1549.24 693.872V552.326M1549.24 693.872H1372.31M1770.41 658.485L1549.24 552.326M1770.41 658.485V446.167M1505.01 870.804L1372.31 693.872M1505.01 870.804H1239.61M708.809 870.804L841.509 693.872M708.809 870.804H974.208M664.576 693.872L885.742 516.94M664.576 693.872H841.509M664.576 693.872V552.326M443.41 658.485L664.576 552.326M443.41 658.485V446.167M885.742 163.076H974.208M885.742 163.076V233.849M664.576 127.689L885.742 233.849M664.576 127.689V269.235M841.509 -13.8561L974.208 163.076M841.509 -13.8561H1018.44M1328.07 163.076V233.849M1328.07 163.076H1239.61M1549.24 127.689L1328.07 233.849M1549.24 127.689V269.235M1372.31 -13.8561L1239.61 163.076M1372.31 -13.8561H1195.37M1328.07 516.94H1239.61M1328.07 516.94V446.167M1549.24 552.326L1328.07 446.167M1549.24 552.326V410.781M1372.31 693.872L1239.61 516.94M1372.31 693.872H1195.37M885.742 516.94V446.167M885.742 516.94H974.208M841.509 693.872L974.208 516.94M841.509 693.872H1018.44M664.576 552.326L885.742 446.167M664.576 552.326V410.781M974.208 163.076H1062.67M885.742 233.849V304.621M1328.07 233.849V304.621M1239.61 163.076H1151.14M1239.61 516.94H1151.14M1328.07 446.167V375.394M885.742 446.167V375.394M974.208 516.94H1062.67M1151.14 516.94H1062.67M1151.14 516.94L1195.37 693.872M1062.67 516.94L1018.44 693.872M1195.37 693.872H1018.44M1195.37 693.872L1239.61 870.804M1018.44 693.872L974.208 870.804M1328.07 375.394V304.621M1328.07 375.394L1549.24 410.781M1328.07 304.621L1549.24 269.235M1549.24 410.781V269.235M1549.24 410.781L1770.41 446.167M1549.24 269.235L1770.41 233.849M1151.14 163.076H1062.67M1151.14 163.076L1195.37 -13.8561M1062.67 163.076L1018.44 -13.8561M1018.44 -13.8561H1195.37M1018.44 -13.8561L974.208 -190.788M1195.37 -13.8561L1239.61 -190.788M885.742 304.621V375.394M885.742 304.621L664.576 269.235M885.742 375.394L664.576 410.781M664.576 269.235V410.781M664.576 269.235L443.41 233.849M664.576 410.781L443.41 446.167M974.208 870.804H1239.61M1770.41 446.167V233.849M443.41 233.849V446.167M1239.61 -190.788H974.208" stroke="url(#paint0_radial_116_4319)" stroke-opacity="0.88" stroke-width="1.06586" stroke-linejoin="round"/>
<g opacity="0.44">
<path d="M2011 -93.5H758V865.5H2011V-93.5Z" fill="url(#paint1_linear_116_4319)"/>
</g>
<path d="M297.387 0.533203L1440.65 0.533303C1454.52 0.533304 1465.86 11.5853 1466.22 25.4497L1466.64 41.5685" stroke="url(#paint2_linear_116_4319)" stroke-width="1.06586"/>
<defs>
<radialGradient id="paint0_radial_116_4319" cx="0" cy="0" r="1" gradientUnits="userSpaceOnUse" gradientTransform="translate(1106.38 404.492) rotate(180) scale(1167.65 1459.55)">
<stop stop-color="#EDCBF2"/>
<stop offset="0.379595" stop-color="#FFF5F2"/>
<stop offset="1" stop-color="white" stop-opacity="0.17"/>
</radialGradient>
<linearGradient id="paint1_linear_116_4319" x1="2044.48" y1="890.992" x2="1130.56" y2="-275.405" gradientUnits="userSpaceOnUse">
<stop stop-color="#7EFFF5"/>
<stop offset="0.361958" stop-color="#A981FF" stop-opacity="0.92"/>
<stop offset="0.738981" stop-color="#FF8BC1"/>
<stop offset="1" stop-color="#FFF385"/>
</linearGradient>
<linearGradient id="paint2_linear_116_4319" x1="297.387" y1="-0.532958" x2="1465.57" y2="-0.532856" gradientUnits="userSpaceOnUse">
<stop stop-color="white"/>
<stop offset="0.47" stop-color="#FDE6D4"/>
<stop offset="1" stop-color="#FFC2E9"/>
</linearGradient>
</defs>
</svg>
