<svg width="1440" height="866" viewBox="0 0 1440 866" fill="none" xmlns="http://www.w3.org/2000/svg">
<g opacity="0.7">
<path opacity="0.72" d="M0 721.5H144V577.5H0V721.5Z" fill="#FFEBEB"/>
<path opacity="0.72" d="M144 432.5H288V288.5H144V432.5Z" fill="#FFEBEB"/>
<path opacity="0.72" d="M1440 721.5L1296 721.5L1296 577.5L1440 577.5L1440 721.5Z" fill="#FFEBEB"/>
<path opacity="0.72" d="M1296 432.5L1152 432.5L1152 288.5L1296 288.5L1296 432.5Z" fill="#FFEBEB"/>
<path fill-rule="evenodd" clip-rule="evenodd" d="M143.874 864.996H0.503643L0.503656 721.487H129.021L143.874 736.355V864.996ZM159.123 721.487L144.462 736.163V864.996H287.832V721.487H159.123ZM144.462 706.442L158.905 720.899H287.832V577.39H144.462V706.442ZM129.239 720.899L143.874 706.25V577.39H0.503668L0.503656 720.899H129.239ZM0 865.5L1.25973e-05 721.403L1.26341e-05 720.983L2.51946e-05 577.307L2.52314e-05 576.886L3.7792e-05 433.21L3.78287e-05 432.79L5.03893e-05 289.113L5.0426e-05 288.693L6.29866e-05 145.017L6.30234e-05 144.596L7.56207e-05 0.499756L143.958 0.499768L144.378 0.499768L287.916 0.499781L288.336 0.499781L431.874 0.499794L432.294 0.499794L575.832 0.499806L576.252 0.499806L719.79 0.499819L720.21 0.499819L863.748 0.499831L864.168 0.499831L1007.71 0.499844L1008.13 0.499844L1151.66 0.499857L1152.08 0.499857L1295.62 0.499869L1296.04 0.499869L1440 0.499882V144.597V288.693V289.113V433.21V576.886V720.983V721.403V865.5H1296.04H1295.62H1152.08H1151.66H1008.13H1007.71H864.167H863.748H720.21H719.79H576.252H575.832H432.294H431.874H288.336H287.916H144.378H143.958H0ZM288.419 864.996H431.79V721.487H288.419V864.996ZM575.748 864.996H432.378V721.487H575.748V864.996ZM576.336 864.996H719.706V721.487H576.336V864.996ZM863.664 864.996H720.293V721.487H863.664V864.996ZM864.252 864.996H1007.62V721.487H864.252V864.996ZM1151.58 864.996H1008.21V721.487H1151.58V864.996ZM1152.17 864.996H1295.54V721.487H1152.17V864.996ZM1439.5 864.996H1296.13V721.487H1439.5V864.996ZM288.419 720.899H431.79V577.39H288.419V720.899ZM575.748 720.899H432.378V577.39H561.327L575.748 591.825V720.899ZM590.526 577.39L576.336 591.594V720.899H719.706V577.39H590.526ZM576.336 561.913L591.162 576.753L591.113 576.803H719.706V433.294H576.336V561.913ZM560.74 576.803L560.691 576.753L575.748 561.682V433.294H432.378V576.803H560.74ZM863.664 720.899H720.293V577.39H863.664V720.899ZM864.252 720.899H1007.62V577.39H864.252V720.899ZM1151.58 720.899H1008.21V577.39L1151.58 577.391V720.899ZM1152.17 720.899H1295.54V617.204L1295.29 616.961L1255.76 577.391H1152.17V720.899ZM1255.17 576.803H1152.17V447.432L1152.65 447.914L1167.25 433.294H1295.54V536.302L1295.29 536.546L1255.51 576.364L1255.13 576.754L1255.17 576.803ZM1295.54 537.081L1255.9 576.754L1255.95 576.803H1280.5L1280.45 576.754L1295.54 561.649V537.081ZM1296.13 536.599V433.294H1439.5V576.803H1336.19L1336.24 576.754L1335.85 576.364L1296.13 536.599ZM1335.41 576.803L1335.46 576.754L1296.13 537.378V561.945L1310.92 576.754L1310.87 576.803H1335.41ZM1335.6 577.391H1439.5V720.899H1296.13V616.907L1335.6 577.391ZM1296.13 616.129L1334.83 577.391H1310.28L1296.13 591.561V616.129ZM1295.54 616.426L1256.54 577.391H1281.08L1295.54 591.858V616.426ZM1152.17 417.895L1152.65 417.413L1167.89 432.663L1167.84 432.706H1295.54V289.198L1152.17 289.197V417.895ZM1137.46 432.706L1137.41 432.663L1151.58 418.483V289.197H1008.21V432.706H1137.46ZM1151.58 446.844L1138.04 433.294H1008.21V576.803H1151.58V446.844ZM0.503668 576.803H143.874V433.294H0.503681L0.503668 576.803ZM287.832 576.803H144.462V433.294H287.832V576.803ZM288.419 576.803H431.79V433.294H288.419V576.803ZM863.664 576.803H720.294V433.294H863.664V576.803ZM864.252 576.803H1007.62V433.294H864.252V576.803ZM0.503681 432.706H143.874V289.197H0.503694L0.503681 432.706ZM287.832 432.706H144.462V289.197H248.218L248.032 289.384L248.421 289.773L287.832 329.223V432.706ZM287.832 328.444L248.81 289.384L248.996 289.197H273.54L273.354 289.384L287.832 303.877V328.444ZM288.419 304.464V329.032L288.589 329.202L328.369 289.384L328.183 289.197H303.639L303.825 289.384L288.59 304.635L288.419 304.464ZM288.419 274.304L288.59 274.133L303.051 288.609H327.595L288.589 249.566L288.419 249.736V274.304ZM274.128 288.609L287.832 274.891V250.324L249.584 288.609H274.128ZM248.806 288.609H144.462V145.101H287.832V249.545L248.806 288.609ZM288.419 248.957V145.101H431.79V288.609H328.373L288.978 249.177L288.589 248.787L288.419 248.957ZM328.961 289.197H431.79V432.706H288.419V329.811L288.589 329.981L288.978 329.591L328.758 289.773L329.147 289.384L328.961 289.197ZM575.748 432.706H432.378V289.197H575.748V432.706ZM576.336 432.706H719.706V289.197H576.336V432.706ZM863.664 432.706H720.293V289.197H863.664V432.706ZM864.252 432.706H1007.62V289.197H864.252V432.706ZM1439.5 432.706H1296.13V289.198H1439.5V432.706ZM0.503694 288.609H143.874V145.101H0.503706L0.503694 288.609ZM575.748 288.609H432.378V145.101H575.748V288.609ZM576.336 288.609H719.706V145.101H576.336V288.609ZM863.664 288.609H720.293V145.101H863.664V288.609ZM864.252 288.609H1007.62V145.101H864.252V288.609ZM1151.58 288.609H1008.21V145.101H1151.58V288.609ZM1152.17 288.609H1295.54V145.101H1152.17V288.609ZM1439.5 288.609H1296.13V145.101H1439.5V288.609ZM0.503706 144.512H143.874V1.00392L0.503719 1.00391L0.503706 144.512ZM287.832 144.512H144.462V1.00392L287.832 1.00393V144.512ZM288.419 144.512H431.79V1.00394L288.42 1.00393L288.419 144.512ZM575.748 144.512H432.378V1.00394L575.748 1.00396V144.512ZM576.336 144.512H719.706V1.00397L576.336 1.00396V144.512ZM863.664 144.512H720.293V1.00397L863.664 1.00398V144.512ZM864.252 144.512H1007.62V1.00399L864.252 1.00398V144.512ZM1151.58 144.512H1008.21V1.00399L1151.58 1.00401V144.512ZM1152.17 144.512L1295.54 144.513V1.00402L1152.17 1.00401V144.512ZM1439.5 144.513H1296.13V1.00402L1439.5 1.00403V144.513Z" fill="url(#paint0_linear_116_4901)"/>
</g>
<defs>
<linearGradient id="paint0_linear_116_4901" x1="720" y1="882.5" x2="720" y2="20.4999" gradientUnits="userSpaceOnUse">
<stop stop-color="#FF8686" stop-opacity="0"/>
<stop offset="0.5" stop-color="#FFEBEB"/>
<stop offset="1" stop-color="#FF8686" stop-opacity="0"/>
</linearGradient>
</defs>
</svg>
