<svg width="1440" height="865" viewBox="0 0 1440 865" fill="none" xmlns="http://www.w3.org/2000/svg">
<g opacity="0.7">
<path opacity="0.72" d="M0 721H144V577H0V721Z" fill="#EDEBFF"/>
<path opacity="0.72" d="M144 432H288V288H144V432Z" fill="#EDEBFF"/>
<path opacity="0.72" d="M1440 721L1296 721L1296 577L1440 577L1440 721Z" fill="#EDEBFF"/>
<path opacity="0.72" d="M1296 432L1152 432L1152 288L1296 288L1296 432Z" fill="#EDEBFF"/>
<path fill-rule="evenodd" clip-rule="evenodd" d="M143.874 864.496H0.503643L0.503656 720.987H129.021L143.874 735.855V864.496ZM159.123 720.987L144.462 735.663V864.496H287.832V720.987H159.123ZM144.462 705.942L158.905 720.399H287.832V576.89H144.462V705.942ZM129.239 720.399L143.874 705.75V576.89H0.503668L0.503656 720.399H129.239ZM0 865L1.25973e-05 720.903L1.26341e-05 720.483L2.51946e-05 576.807L2.52314e-05 576.386L3.7792e-05 432.71L3.78287e-05 432.29L5.03893e-05 288.613L5.0426e-05 288.193L6.29866e-05 144.517L6.30234e-05 144.096L7.56207e-05 -0.000244141L143.958 -0.000231555L144.378 -0.000231519L287.916 -0.00021897L288.336 -0.000218934L431.874 -0.000206385L432.294 -0.000206348L575.832 -0.0001938L576.252 -0.000193763L719.79 -0.000181215L720.21 -0.000181178L863.748 -0.000168629L864.168 -0.000168593L1007.71 -0.000156044L1008.13 -0.000156007L1151.66 -0.000143459L1152.08 -0.000143422L1295.62 -0.000130874L1296.04 -0.000130837L1440 -0.000118252V144.097V288.193V288.613V432.71V576.386V720.483V720.903V865H1296.04H1295.62H1152.08H1151.66H1008.13H1007.71H864.167H863.748H720.21H719.79H576.252H575.832H432.294H431.874H288.336H287.916H144.378H143.958H0ZM288.419 864.496H431.79V720.987H288.419V864.496ZM575.748 864.496H432.378V720.987H575.748V864.496ZM576.336 864.496H719.706V720.987H576.336V864.496ZM863.664 864.496H720.293V720.987H863.664V864.496ZM864.252 864.496H1007.62V720.987H864.252V864.496ZM1151.58 864.496H1008.21V720.987H1151.58V864.496ZM1152.17 864.496H1295.54V720.987H1152.17V864.496ZM1439.5 864.496H1296.13V720.987H1439.5V864.496ZM288.419 720.399H431.79V576.89H288.419V720.399ZM575.748 720.399H432.378V576.89H561.327L575.748 591.325V720.399ZM590.526 576.89L576.336 591.094V720.399H719.706V576.89H590.526ZM576.336 561.413L591.162 576.253L591.113 576.303H719.706V432.794H576.336V561.413ZM560.74 576.303L560.691 576.253L575.748 561.182V432.794H432.378V576.303H560.74ZM863.664 720.399H720.293V576.89H863.664V720.399ZM864.252 720.399H1007.62V576.89H864.252V720.399ZM1151.58 720.399H1008.21V576.89L1151.58 576.891V720.399ZM1152.17 720.399H1295.54V616.704L1295.29 616.461L1255.76 576.891H1152.17V720.399ZM1255.17 576.303H1152.17V446.932L1152.65 447.414L1167.25 432.794H1295.54V535.802L1295.29 536.046L1255.51 575.864L1255.13 576.254L1255.17 576.303ZM1295.54 536.581L1255.9 576.254L1255.95 576.303H1280.5L1280.45 576.254L1295.54 561.149V536.581ZM1296.13 536.099V432.794H1439.5V576.303H1336.19L1336.24 576.254L1335.85 575.864L1296.13 536.099ZM1335.41 576.303L1335.46 576.254L1296.13 536.878V561.445L1310.92 576.254L1310.87 576.303H1335.41ZM1335.6 576.891H1439.5V720.399H1296.13V616.407L1335.6 576.891ZM1296.13 615.629L1334.83 576.891H1310.28L1296.13 591.061V615.629ZM1295.54 615.926L1256.54 576.891H1281.08L1295.54 591.358V615.926ZM1152.17 417.395L1152.65 416.913L1167.89 432.163L1167.84 432.206H1295.54V288.698L1152.17 288.697V417.395ZM1137.46 432.206L1137.41 432.163L1151.58 417.983V288.697H1008.21V432.206H1137.46ZM1151.58 446.344L1138.04 432.794H1008.21V576.303H1151.58V446.344ZM0.503668 576.303H143.874V432.794H0.503681L0.503668 576.303ZM287.832 576.303H144.462V432.794H287.832V576.303ZM288.419 576.303H431.79V432.794H288.419V576.303ZM863.664 576.303H720.294V432.794H863.664V576.303ZM864.252 576.303H1007.62V432.794H864.252V576.303ZM0.503681 432.206H143.874V288.697H0.503694L0.503681 432.206ZM287.832 432.206H144.462V288.697H248.218L248.032 288.884L248.421 289.273L287.832 328.723V432.206ZM287.832 327.944L248.81 288.884L248.996 288.697H273.54L273.354 288.884L287.832 303.377V327.944ZM288.419 303.964V328.532L288.589 328.702L328.369 288.884L328.183 288.697H303.639L303.825 288.884L288.59 304.135L288.419 303.964ZM288.419 273.804L288.59 273.633L303.051 288.109H327.595L288.589 249.066L288.419 249.236V273.804ZM274.128 288.109L287.832 274.391V249.824L249.584 288.109H274.128ZM248.806 288.109H144.462V144.601H287.832V249.045L248.806 288.109ZM288.419 248.457V144.601H431.79V288.109H328.373L288.978 248.677L288.589 248.287L288.419 248.457ZM328.961 288.697H431.79V432.206H288.419V329.311L288.589 329.481L288.978 329.091L328.758 289.273L329.147 288.884L328.961 288.697ZM575.748 432.206H432.378V288.697H575.748V432.206ZM576.336 432.206H719.706V288.697H576.336V432.206ZM863.664 432.206H720.293V288.697H863.664V432.206ZM864.252 432.206H1007.62V288.697H864.252V432.206ZM1439.5 432.206H1296.13V288.698H1439.5V432.206ZM0.503694 288.109H143.874V144.601H0.503706L0.503694 288.109ZM575.748 288.109H432.378V144.601H575.748V288.109ZM576.336 288.109H719.706V144.601H576.336V288.109ZM863.664 288.109H720.293V144.601H863.664V288.109ZM864.252 288.109H1007.62V144.601H864.252V288.109ZM1151.58 288.109H1008.21V144.601H1151.58V288.109ZM1152.17 288.109H1295.54V144.601H1152.17V288.109ZM1439.5 288.109H1296.13V144.601H1439.5V288.109ZM0.503706 144.012H143.874V0.503919L0.503719 0.503906L0.503706 144.012ZM287.832 144.012H144.462V0.503919L287.832 0.503931V144.012ZM288.419 144.012H431.79V0.503944L288.42 0.503931L288.419 144.012ZM575.748 144.012H432.378V0.503944L575.748 0.503957V144.012ZM576.336 144.012H719.706V0.503969L576.336 0.503957V144.012ZM863.664 144.012H720.293V0.503969L863.664 0.503982V144.012ZM864.252 144.012H1007.62V0.503994L864.252 0.503982V144.012ZM1151.58 144.012H1008.21V0.503994L1151.58 0.504007V144.012ZM1152.17 144.012L1295.54 144.013V0.50402L1152.17 0.504007V144.012ZM1439.5 144.013H1296.13V0.50402L1439.5 0.504032V144.013Z" fill="url(#paint0_linear_116_5151)"/>
</g>
<defs>
<linearGradient id="paint0_linear_116_5151" x1="720" y1="882" x2="720" y2="19.9999" gradientUnits="userSpaceOnUse">
<stop stop-color="#9585FF" stop-opacity="0"/>
<stop offset="0.5" stop-color="#EDEBFF"/>
<stop offset="1" stop-color="#9585FF" stop-opacity="0"/>
</linearGradient>
</defs>
</svg>
