<svg width="27" height="26" viewBox="0 0 27 26" fill="none" xmlns="http://www.w3.org/2000/svg">
<path d="M7.16016 2.16675L3.91016 6.50008V21.6667C3.91016 22.2414 4.13843 22.7925 4.54476 23.1988C4.95109 23.6051 5.50219 23.8334 6.07682 23.8334H21.2435C21.8181 23.8334 22.3692 23.6051 22.7756 23.1988C23.1819 22.7925 23.4102 22.2414 23.4102 21.6667V6.50008L20.1602 2.16675H7.16016Z" stroke="#73BEFF" stroke-width="2.16667" stroke-linecap="round" stroke-linejoin="round"/>
<path d="M3.91016 6.5H23.4102" stroke="#73BEFF" stroke-width="2.16667" stroke-linecap="round" stroke-linejoin="round"/>
<path d="M17.9928 10.8333C17.9928 11.9825 17.5363 13.0847 16.7236 13.8974C15.911 14.71 14.8088 15.1666 13.6595 15.1666C12.5102 15.1666 11.408 14.71 10.5954 13.8974C9.78272 13.0847 9.32617 11.9825 9.32617 10.8333" stroke="#73BEFF" stroke-width="2.16667" stroke-linecap="round" stroke-linejoin="round"/>
</svg>
