<svg width="108" height="22" viewBox="0 0 108 22" fill="none" xmlns="http://www.w3.org/2000/svg">
<g clip-path="url(#clip0_116_4457)">
<path d="M30.5989 5.76384C30.9132 6.09309 31.0813 6.54166 31.0643 7.00291V18.9168C31.0766 19.3728 30.9084 19.8151 30.5989 20.1417C30.2916 20.4691 29.864 20.6481 29.4218 20.6347C28.9858 20.6507 28.5633 20.4769 28.2585 20.1559C27.9544 19.83 27.783 19.3963 27.7793 18.9448C26.6725 20.1827 25.1163 20.8964 23.4814 20.9162C22.271 20.9307 21.0819 20.5832 20.0595 19.9165C19.0233 19.2341 18.1862 18.2751 17.6371 17.1423C17.029 15.8935 16.7238 14.5116 16.7474 13.1152C16.7249 11.7157 17.0253 10.3301 17.6237 9.07314C18.1601 7.93661 18.9886 6.97234 20.0189 6.28513C21.0181 5.62289 22.184 5.27537 23.3727 5.28543C24.2179 5.2791 25.0558 5.44689 25.8372 5.77838C26.5522 6.0737 27.2107 6.49803 27.7808 7.03162V7.00367C27.7688 6.54763 27.9366 6.10502 28.2465 5.77838C28.5538 5.45099 28.9815 5.27201 29.4236 5.28543C29.8625 5.27164 30.288 5.44465 30.5989 5.76384ZM26.7936 16.4804C27.559 15.54 27.9595 14.3404 27.9171 13.1148C27.9576 11.885 27.5579 10.6817 26.7936 9.735C26.0666 8.87663 25.0123 8.38331 23.9055 8.38331C22.799 8.38331 21.7447 8.87663 21.0177 9.735C19.5311 11.7135 19.5257 14.4952 21.004 16.4804C21.715 17.3593 22.7812 17.853 23.8921 17.8183C25.0061 17.8515 26.076 17.3582 26.7939 16.4808L26.7936 16.4804Z" fill="black"/>
<path d="M43.0315 5.76387C43.3787 6.02861 43.5864 6.44586 43.5929 6.89033C43.6288 7.37023 43.47 7.84453 43.1547 8.19989C42.8796 8.48402 42.5042 8.64176 42.1146 8.63654C41.7956 8.62759 41.4803 8.56047 41.1839 8.43929C41.1292 8.42101 41.0059 8.38372 40.8142 8.32741C40.6138 8.26962 40.4061 8.24128 40.1981 8.24277C39.7081 8.24762 39.2312 8.40497 38.8296 8.69358C38.3552 9.03924 37.9812 9.51168 37.7482 10.0594C37.4499 10.7452 37.3049 11.4909 37.3238 12.2419V18.9165C37.3361 19.3725 37.1679 19.8147 36.8584 20.1414C36.2075 20.7954 35.1536 20.7954 34.5027 20.1414C34.1932 19.8147 34.0254 19.3725 34.0377 18.9165V7.2826C34.0254 6.82657 34.1932 6.38434 34.5027 6.05769C35.1536 5.40366 36.2075 5.40366 36.8584 6.05769C37.1679 6.38434 37.3357 6.82657 37.3238 7.2826V7.64877C37.7373 6.8866 38.3679 6.27322 39.1304 5.89102C39.9118 5.48794 40.7751 5.28062 41.6492 5.28546C42.1508 5.26943 42.6415 5.43909 43.0315 5.76387Z" fill="black"/>
<path d="M47.8279 20.1422C47.177 20.7962 46.1231 20.7962 45.4722 20.1422C45.1623 19.8156 44.9942 19.3733 45.0065 18.9169V7.28306C44.9945 6.82703 45.1627 6.38479 45.4722 6.05815C46.1231 5.40412 47.177 5.40412 47.8279 6.05815C48.1374 6.38479 48.3056 6.82703 48.2936 7.28306V18.9169C48.3056 19.3729 48.1374 19.8156 47.8279 20.1422Z" fill="black"/>
<path d="M50.1551 17.4523C50.2102 16.6354 50.8655 15.9865 51.661 15.9608C52.0814 15.9783 52.4772 16.1715 52.7558 16.4959C53.2433 17.0328 53.8235 17.4725 54.4668 17.7917C55.1449 18.0907 55.8784 18.235 56.616 18.2141C58.0392 18.1578 58.7506 17.6037 58.751 16.5526C58.7636 16.0305 58.4802 15.5462 58.0261 15.3131C57.3078 14.941 56.5496 14.6572 55.7668 14.4674C54.885 14.2295 54.0207 13.9282 53.1799 13.5662C52.5065 13.2604 51.9147 12.7917 51.4551 12.1999C50.9409 11.4911 50.6843 10.6189 50.7303 9.73558C50.7133 8.88616 50.9789 8.05576 51.4827 7.38271C52.0013 6.70295 52.6797 6.16974 53.4539 5.83377C54.2693 5.46686 55.1507 5.27967 56.0408 5.28452C56.9947 5.28936 57.9399 5.47059 58.8314 5.8196C59.6903 6.12462 60.4492 6.67088 61.0215 7.39688C61.2527 7.68101 61.3788 8.04047 61.377 8.41111C61.3817 8.83284 61.1878 9.23182 60.8573 9.48128C60.6087 9.68524 60.2992 9.79488 59.981 9.79115C59.6139 9.80532 59.2573 9.6625 58.9956 9.39701C58.6513 8.97156 58.2153 8.63409 57.7228 8.41111C57.1668 8.15942 56.5645 8.0345 55.9571 8.04457C54.5701 8.04457 53.8764 8.56101 53.8764 9.59389C53.8612 9.96751 54.0004 10.3311 54.2595 10.5936C54.5375 10.8613 54.8695 11.063 55.2312 11.185C55.6237 11.3255 56.1756 11.4997 56.8874 11.707C57.7282 11.9371 58.5516 12.2287 59.3518 12.5799C60.0143 12.8849 60.5895 13.36 61.0219 13.9596C61.5064 14.6762 61.7471 15.538 61.7061 16.4098C61.7217 17.2827 61.4408 18.1347 60.9124 18.8178C60.3742 19.5103 59.6715 20.0483 58.8727 20.3809C58.0627 20.7333 57.1926 20.9153 56.3133 20.916C55.1634 20.9261 54.0214 20.7158 52.9461 20.2963C51.9274 19.8992 51.0431 19.2041 50.403 18.2973C50.232 18.0516 50.1446 17.7544 50.1551 17.4523Z" fill="black"/>
<path d="M76.0099 17.8042C76.3289 18.1137 76.5035 18.5504 76.4887 19.0012C76.4996 19.4431 76.3252 19.8693 76.0099 20.1698C75.6885 20.4804 75.2597 20.6475 74.819 20.6344H65.9228C65.9115 20.6348 65.9003 20.6348 65.8891 20.6348C64.991 20.6348 64.252 19.8745 64.252 18.9505C64.252 18.9393 64.252 18.9277 64.2524 18.9165V2.45166C64.2419 1.9904 64.4209 1.54556 64.7453 1.22675C65.0831 0.894515 65.5375 0.716648 66.0047 0.733801C66.4454 0.727835 66.8701 0.905701 67.1814 1.22675C67.5054 1.54556 67.6845 1.9904 67.674 2.45166V17.34H74.819C75.2597 17.3266 75.6885 17.4936 76.0099 17.8042Z" fill="black"/>
<path d="M81.019 20.1422C80.3681 20.7962 79.3141 20.7962 78.6632 20.1422C78.3534 19.8156 78.1856 19.3729 78.1979 18.9169V7.28306C78.1856 6.82703 78.3537 6.38479 78.6632 6.05815C79.3141 5.40412 80.3681 5.40412 81.019 6.05815C81.3285 6.38479 81.4966 6.82703 81.4846 7.28306V18.9169C81.497 19.3733 81.3288 19.8156 81.019 20.1422Z" fill="black"/>
<path d="M89.7017 3.32756C89.4527 3.67397 89.3183 4.09383 89.3186 4.52451V5.8486H91.8095C92.2165 5.8363 92.6116 5.99403 92.9044 6.28524C93.485 6.90124 93.485 7.89423 92.9044 8.51022C92.6119 8.80182 92.2165 8.95917 91.8095 8.94686H89.3186V18.9169C89.3306 19.373 89.1624 19.8152 88.8529 20.1418C88.202 20.7959 87.1481 20.7959 86.4972 20.1418C86.1873 19.8152 86.0192 19.373 86.0315 18.9169V8.94686H84.5536C84.1462 8.95954 83.7512 8.80182 83.4583 8.51022C82.8785 7.89385 82.8785 6.90162 83.4583 6.28524C83.7512 5.99403 84.1466 5.8363 84.5536 5.8486H86.0315V4.55322C85.988 3.25112 86.5045 1.9934 87.4417 1.11713C88.3814 0.234522 89.7361 -0.206593 91.5065 -0.206966C92.1205 -0.221881 92.7279 -0.0764569 93.2722 0.215881C93.7492 0.456016 94.0453 0.965369 94.0253 1.51127C94.042 1.91472 93.9043 2.30923 93.6419 2.60977C93.4063 2.88197 93.0671 3.03634 92.7127 3.03224C92.6163 3.03187 92.5199 3.02217 92.4253 3.0039C92.3245 2.98526 92.2201 2.96661 92.1103 2.9476C91.753 2.84692 91.3855 2.79024 91.0155 2.77869C90.5164 2.72536 90.0232 2.93157 89.7017 3.32756Z" fill="black"/>
<path d="M107.039 13.8471C106.718 14.1261 106.309 14.276 105.889 14.2696H96.8551C97.028 15.2988 97.5644 16.2269 98.3606 16.8749C99.1144 17.4928 100.052 17.8261 101.016 17.8183C101.607 17.8388 102.197 17.7676 102.768 17.6069C103.117 17.4984 103.453 17.347 103.767 17.1565C104.013 16.9972 104.182 16.8887 104.274 16.8324C104.561 16.6743 104.88 16.5874 105.205 16.5789C105.576 16.5736 105.933 16.7265 106.191 17.0013C106.454 17.2575 106.602 17.6147 106.601 17.9872C106.574 18.5462 106.289 19.0589 105.835 19.3669C105.219 19.8557 104.524 20.2275 103.782 20.465C101.6 21.216 99.2116 21.0228 97.1704 19.9299C96.0567 19.3009 95.1402 18.3579 94.5288 17.212C93.8982 16.0158 93.5774 14.6719 93.5977 13.3113C93.5662 11.8302 93.9054 10.3656 94.5831 9.05824C95.1848 7.89709 96.0843 6.92761 97.1838 6.25568C98.2272 5.61731 99.4192 5.28134 100.633 5.28395C101.839 5.2847 103.02 5.63633 104.04 6.29781C105.104 6.97049 105.985 7.91052 106.599 9.02953C107.234 10.159 107.565 11.4424 107.557 12.7471C107.551 13.1745 107.361 13.5775 107.039 13.8471ZM96.8827 11.4529H104.055V11.2556C103.971 10.4487 103.563 9.71302 102.931 9.22791C102.286 8.67567 101.471 8.37625 100.631 8.38296C98.515 8.38334 97.2657 9.40651 96.8827 11.4532V11.4529Z" fill="black"/>
<path d="M3.72906 16.4835V18.8621C3.72906 19.8346 2.95132 20.6348 2.00613 20.6348C1.06095 20.6348 0.283203 19.8346 0.283203 18.8621V9.42041L1.776 11.1633C3.03431 12.6328 3.72906 14.5251 3.72906 16.4835Z" fill="black"/>
<path d="M0.283203 3.61391V2.49191C0.283203 1.51944 1.06095 0.719238 2.00613 0.719238C2.95132 0.719238 3.72906 1.51944 3.72906 2.49191V10.6774L2.23627 8.93453C0.97796 7.46501 0.283203 5.57227 0.283203 3.61391Z" fill="black"/>
<path d="M8.60033 10.6968C8.59816 10.6945 8.59816 10.6912 8.59707 10.6886C7.69248 9.78917 7.17567 8.55232 7.16371 7.25806L5.96411 8.49266C5.3683 9.0807 5.03125 9.89432 5.03125 10.7441C5.03125 11.5935 5.3683 12.4072 5.96411 12.9952L12.9406 20.1739C13.2636 20.5061 13.7017 20.6929 14.158 20.6929C15.1028 20.6929 15.8802 19.8931 15.8802 18.921C15.8802 18.4515 15.6986 18.0007 15.3757 17.6685L8.60033 10.6968Z" fill="black"/>
<path d="M15.2023 3.8159C15.5253 3.48366 15.7065 3.03285 15.7065 2.56339C15.7065 2.05553 15.4944 1.57153 15.1248 1.23557C14.4195 0.624418 13.362 0.678859 12.7198 1.35936L9.32792 4.89762C8.35447 6.02633 8.41753 7.23744 8.97565 8.34303C9.19999 8.73679 9.47434 9.09811 9.79181 9.4173C9.79544 9.41954 15.2023 3.8159 15.2023 3.8159Z" fill="black"/>
<path d="M46.6267 3.88426C47.5791 3.88426 48.3511 3.08994 48.3511 2.1101C48.3511 1.13026 47.5791 0.335938 46.6267 0.335938C45.6744 0.335938 44.9023 1.13026 44.9023 2.1101C44.9023 3.08994 45.6744 3.88426 46.6267 3.88426Z" fill="black"/>
<path d="M79.8455 3.88426C80.7978 3.88426 81.5699 3.08994 81.5699 2.1101C81.5699 1.13026 80.7978 0.335938 79.8455 0.335938C78.8931 0.335938 78.1211 1.13026 78.1211 2.1101C78.1211 3.08994 78.8931 3.88426 79.8455 3.88426Z" fill="black"/>
</g>
<defs>
<clipPath id="clip0_116_4457">
<rect width="108" height="22" fill="white" transform="translate(0 -0.5)"/>
</clipPath>
</defs>
</svg>
