<svg width="144" height="29" viewBox="0 0 144 29" fill="none" xmlns="http://www.w3.org/2000/svg">
<g clip-path="url(#clip0_116_4540)">
<path d="M23.3359 14.3797C23.3359 5.89732 28.5892 0.814941 36.0931 0.814941C43.5978 0.814941 48.8502 5.89732 48.8502 14.3797C48.8502 22.8629 43.5978 27.9452 36.0931 27.9452C28.5892 27.9452 23.3455 22.8629 23.3455 14.3797H23.3359ZM36.2761 23.4237C40.962 23.4237 43.7808 20.0317 43.7808 14.3797C43.7808 8.72771 40.9708 5.33652 36.2761 5.33652H35.9013C31.2154 5.33652 28.3966 8.72771 28.3966 14.3797C28.3966 20.0317 31.2066 23.4237 35.9013 23.4237H36.2761Z" fill="black"/>
<path d="M52.3916 18.139V0.999023H57.4531V17.395C57.4531 21.5397 59.1365 23.2301 62.5137 23.2301H62.8885C66.2657 23.2301 67.9492 21.5397 67.9492 17.395V0.999023H73.0106V18.139C73.0106 24.1677 69.8259 27.7429 62.6967 27.7429C55.5675 27.7429 52.3828 24.1677 52.3828 18.139H52.3916Z" fill="black"/>
<path d="M101.949 27.5588H95.973L89.8597 18.3316L83.6367 27.5588H77.9355L87.0139 14.0396L78.5028 1.19165H84.4697L90.0244 9.59162L95.6802 1.19165H101.382L92.871 13.8468L101.949 27.5588Z" fill="black"/>
<path d="M24.2054 1.19165H18.2386L12.1253 10.4188L5.9023 1.19165H0.201172L9.27955 14.7108L0.75967 27.5588H6.72653C8.57466 24.7556 21.1854 5.75963 24.2054 1.19165Z" fill="black"/>
<path d="M111.815 1.19165H106.754V27.5588H111.815V1.19165Z" fill="black"/>
<path d="M137.712 27.5588L135.351 21.346H124.324L121.962 27.5588H116.637L127.023 1.19165H132.953L143.084 27.5588H137.712ZM126.044 16.8244H133.622L129.833 6.84363L126.044 16.8244Z" fill="black"/>
</g>
<defs>
<clipPath id="clip0_116_4540">
<rect width="144" height="28" fill="white" transform="translate(0 0.5)"/>
</clipPath>
</defs>
</svg>
