<svg width="176" height="32" viewBox="0 0 176 32" fill="none" xmlns="http://www.w3.org/2000/svg">
<g clip-path="url(#clip0_116_4396)">
<g clip-path="url(#clip1_116_4396)">
<g clip-path="url(#clip2_116_4396)">
<path d="M60.74 29.5332C59.3475 30.8006 57.5294 31.5023 55.644 31.5H7.6093C6.61314 31.499 5.62693 31.3024 4.70698 30.9214C3.78703 30.5404 2.95135 29.9825 2.24767 29.2796C1.54398 28.5766 0.986061 27.7423 0.605765 26.8244C0.225473 25.9064 0.0302552 24.9228 0.0312538 23.9296V7.56964C0.0294203 5.564 0.826763 3.63976 2.24791 2.2202C3.66905 0.80063 5.59758 0.00200883 7.6093 0H55.6446C56.6407 0.000994647 57.6269 0.197579 58.5467 0.578527C59.4665 0.959475 60.3021 1.51733 61.0058 2.22024C61.7094 2.92314 62.2673 3.75734 62.6475 4.67519C63.0278 5.59304 63.223 6.57658 63.222 7.56964V23.9296C63.222 23.9565 63.222 23.9827 63.222 24.0096C64.7147 26.2282 65.5353 28.8283 65.5858 31.4993C64.1467 30.4756 62.4871 29.8022 60.74 29.5332ZM1.7988 7.56964V23.9296C1.79898 25.4664 2.41054 26.9402 3.49934 28.0279C4.58812 29.1156 6.06521 29.7283 7.60654 29.7316H55.6419C57.0867 29.7328 58.4799 29.1951 59.5473 28.2243L60.1609 27.6663L60.9818 27.7806C61.7857 27.8941 62.5758 28.0899 63.3395 28.3648C62.9754 27.1684 62.4384 26.0312 61.7454 24.9892L61.4434 24.5359L61.4483 23.9923C61.4483 23.9655 61.4483 23.9386 61.4483 23.911V7.56964C61.448 6.03278 60.8364 4.55874 59.7475 3.47092C58.6586 2.38309 57.1813 1.77032 55.6398 1.76703H7.6093C6.06791 1.7705 4.59082 2.38335 3.50206 3.47115C2.41329 4.55896 1.80174 6.03289 1.80156 7.56964H1.7988ZM96.1954 21.4483L97.3701 19.8776C98.3935 20.8452 99.7341 21.4106 101.143 21.4689C102.525 21.4689 103.7 20.6939 103.7 19.2906C103.7 16.0872 96.5311 16.7782 96.5311 12.2342C96.5311 9.93049 98.5225 8.10833 101.311 8.10833C102.846 8.0557 104.345 8.58721 105.502 9.59498L104.56 11.3124C103.657 10.5267 102.51 10.0753 101.312 10.0345C99.7403 10.0345 98.6285 11.0183 98.6285 12.1908C98.6285 15.2488 105.797 14.4318 105.797 19.2272C105.797 21.5096 104.037 23.3944 101.102 23.3944C99.2724 23.4179 97.5084 22.7182 96.1954 21.4483ZM81.8583 17.9094V8.36048H83.9311V17.9087C83.9311 20.1703 85.3986 21.491 87.6619 21.491C89.9476 21.491 91.435 20.1724 91.435 17.8687V8.36187H93.5079V17.9101C93.5079 21.1975 91.1392 23.3964 87.6812 23.3964C84.2223 23.3964 81.8583 21.1961 81.8583 17.9094ZM19.0155 21.3863L20.1472 19.8149C21.0887 20.7934 22.3732 21.3711 23.7321 21.4269C24.1096 21.4539 24.4888 21.4048 24.8469 21.2825C25.2051 21.1602 25.5347 20.9672 25.8165 20.7152C26.0981 20.4631 26.326 20.157 26.4864 19.8152C26.6469 19.4734 26.7366 19.1028 26.7503 18.7257C26.7503 16.9036 25.1369 16.0032 23.3134 16.0032H22.2858L21.8022 14.8934L25.0298 11.1044C25.3184 10.7652 25.6266 10.4432 25.9529 10.1399V10.0986C25.5353 10.1461 25.115 10.167 24.6947 10.1613H19.685V8.36048H28.5296V9.67972L24.5053 14.3071C26.4553 14.5172 28.844 15.7737 28.844 18.643C28.8405 19.2886 28.7059 19.9267 28.4486 20.5191C28.1911 21.1115 27.8162 21.6458 27.3462 22.0899C26.8762 22.534 26.321 22.8787 25.7139 23.1033C25.1068 23.3277 24.4604 23.4275 23.8136 23.3964C22.9205 23.3925 22.037 23.213 21.2136 22.868C20.3902 22.523 19.6432 22.0195 19.0155 21.3863ZM44.4838 15.7317C44.4838 11.4812 45.7621 8.10902 49.7035 8.10902C53.6649 8.10902 54.944 11.4847 54.944 15.7317C54.944 20.003 53.6649 23.3951 49.7035 23.3951C45.7621 23.3951 44.4838 20.003 44.4838 15.7317ZM46.601 15.7317C46.601 18.9565 47.292 21.4896 49.7035 21.4896C52.1351 21.4896 52.8268 18.9565 52.8268 15.7317C52.8268 12.5276 52.1358 10.0139 49.7035 10.0139C47.2948 10.0145 46.601 12.5263 46.601 15.7317ZM31.3827 15.7317C31.3827 11.4812 32.6617 8.10902 36.6024 8.10902C40.5645 8.10902 41.8429 11.4847 41.8429 15.7317C41.8429 20.003 40.5645 23.3951 36.6024 23.3951C32.661 23.3951 31.3827 20.003 31.3827 15.7317ZM33.4998 15.7317C33.4998 18.9565 34.1908 21.4896 36.6017 21.4896C39.0333 21.4896 39.7257 18.9565 39.7257 15.7317C39.7257 12.5276 39.0347 10.0139 36.6017 10.0139C34.1908 10.0145 33.4998 12.5263 33.4998 15.7317ZM173.814 23.1443L172.325 18.8931H166.751L165.283 23.1443H163.145L168.469 8.36048H170.65L175.97 23.1443H173.814ZM168.951 12.4857L167.293 17.1756H171.778L170.144 12.4857C169.892 11.7278 169.578 10.3914 169.578 10.3914H169.536C169.536 10.3914 169.204 11.7313 168.953 12.4857H168.951ZM147.803 23.1443V8.36048H149.876V21.3442H156.5V23.145L147.803 23.1443ZM143.464 23.1443L141.975 18.8931H136.399L134.933 23.1443H132.795L138.115 8.36048H140.302L145.622 23.1443H143.464ZM138.601 12.4857L136.942 17.1756H141.428L139.793 12.4857C139.542 11.7278 139.227 10.3914 139.227 10.3914H139.185C139.185 10.3914 138.85 11.7313 138.601 12.4857ZM129.566 23.1443L126.443 17.2597H123.278V23.1443H121.205V8.36048H125.733C126.667 8.29871 127.605 8.41204 128.497 8.69461C129.279 9.01876 129.94 9.57869 130.387 10.296C130.835 11.0133 131.046 11.8521 130.991 12.695C131.032 13.5574 130.795 14.4101 130.317 15.1294C129.838 15.8486 129.141 16.3967 128.328 16.6942V16.7362C128.496 16.9452 128.643 17.1693 128.769 17.4057L131.913 23.1437L129.566 23.1443ZM123.278 15.4597H126.255C126.611 15.4837 126.969 15.4304 127.302 15.3032C127.635 15.1761 127.937 14.9782 128.187 14.7233C128.436 14.4683 128.627 14.1623 128.746 13.8267C128.865 13.491 128.908 13.1336 128.875 12.7791C128.914 12.3271 128.824 11.8733 128.617 11.4698C128.408 11.0661 128.091 10.7287 127.701 10.4961C127.063 10.2131 126.363 10.098 125.668 10.162H123.278L123.278 15.4597ZM111.938 23.1443V10.1613H106.865V8.36048H119.088V10.1613H114.016V23.1443H111.938ZM77.8724 23.1443L76.3853 18.8931H70.8097L69.3428 23.1443H67.2048L72.5254 8.36048H74.7048L80.0297 23.1443H77.8724ZM73.0091 12.4857L71.3508 17.1756H75.8373L74.2025 12.4857C73.9502 11.7278 73.6358 10.3914 73.6358 10.3914H73.5944C73.5944 10.3914 73.2634 11.7313 73.0119 12.4857H73.0091ZM9.09979 23.1443V21.3442H12.3702V11.7947C12.3702 11.3338 12.3909 10.8736 12.3909 10.8736H12.3494C12.1581 11.194 11.9188 11.4835 11.6398 11.732L10.2578 13.0926L8.99953 11.794L12.5381 8.36048H14.383V21.3442H17.6106V23.145L9.09979 23.1443ZM158.889 23.1443V8.35841H160.962V23.1423L158.889 23.1443Z" fill="black"/>
</g>
</g>
</g>
<defs>
<clipPath id="clip0_116_4396">
<rect width="176" height="31.5" fill="white"/>
</clipPath>
<clipPath id="clip1_116_4396">
<rect width="176" height="31.5" fill="white"/>
</clipPath>
<clipPath id="clip2_116_4396">
<rect width="175.939" height="31.5" fill="white" transform="translate(0.03125)"/>
</clipPath>
</defs>
</svg>
