<svg width="114" height="31" viewBox="0 0 114 31" fill="none" xmlns="http://www.w3.org/2000/svg">
<g clip-path="url(#clip0_116_4558)">
<path d="M45.602 12.9339C45.6481 13.6196 45.4044 14.2939 44.9308 14.791C44.3945 15.252 43.6982 15.4829 42.9933 15.4343C42.2656 15.4558 41.5426 15.3034 40.8848 14.9905V13.401C41.4676 13.7834 42.1421 14.002 42.838 14.0339C43.1149 14.0543 43.3885 13.9624 43.598 13.7796C43.7747 13.5943 43.8678 13.3439 43.854 13.0877C43.8526 12.7958 43.7438 12.5148 43.549 12.2982C43.2541 11.9858 42.9154 11.7177 42.5435 11.5029C42.2038 11.3005 41.8932 11.0534 41.6196 10.7677C41.4115 10.5358 41.2462 10.2686 41.1327 9.97815C41.0121 9.65291 40.9541 9.30767 40.9608 8.96101C40.928 8.30434 41.1745 7.66339 41.6386 7.1991C42.135 6.74863 42.7905 6.51482 43.4588 6.54863C44.1931 6.55053 44.9151 6.74196 45.5545 7.10434L44.9707 8.39339C44.7593 8.28148 44.5418 8.18291 44.3185 8.09767C44.0853 8.01005 43.8378 7.96577 43.5885 7.96767C43.3419 7.95196 43.1011 8.04625 42.9301 8.22482C42.7681 8.42101 42.686 8.67148 42.6997 8.92577C42.6959 9.20482 42.7938 9.47624 42.9757 9.68767C43.2574 9.98148 43.5823 10.231 43.939 10.4267C44.453 10.7091 44.8957 11.1058 45.2334 11.5858C45.4813 11.991 45.6091 12.4586 45.602 12.9339Z" fill="black"/>
<path d="M53.0934 6.67236V12.2657C53.1528 13.1205 52.8777 13.9662 52.3277 14.6219C51.7387 15.1943 50.9336 15.49 50.1151 15.4343C49.3148 15.489 48.5286 15.1933 47.9615 14.6247C47.4252 13.9528 47.1616 13.1019 47.2238 12.2438V6.67236H48.9751V12.36C48.9751 13.46 49.3756 14.01 50.1759 14.0095C50.5156 14.0252 50.8409 13.8667 51.039 13.5895C51.2632 13.2333 51.3701 12.8157 51.344 12.3952V6.67236H53.0934Z" fill="black"/>
<path d="M59.5429 12.9338C59.589 13.6196 59.3453 14.2938 58.8718 14.791C58.3355 15.2519 57.6391 15.4829 56.9347 15.4343C56.207 15.4557 55.484 15.3034 54.8262 14.9905V13.401C55.409 13.7834 56.0835 14.0019 56.7794 14.0338C57.0563 14.0543 57.3299 13.9624 57.5394 13.7796C57.7161 13.5943 57.8092 13.3438 57.7954 13.0876C57.794 12.7957 57.6852 12.5148 57.4905 12.2981C57.1955 11.9857 56.8563 11.7176 56.4844 11.5029C56.1448 11.3005 55.8337 11.0529 55.5601 10.7667C55.352 10.5348 55.1867 10.2677 55.0732 9.97717C54.9525 9.65194 54.8946 9.3067 54.9012 8.96003C54.8684 8.30336 55.115 7.66241 55.5791 7.19813C56.0754 6.74765 56.7309 6.51384 57.3993 6.54765C58.1336 6.54955 58.8556 6.74098 59.495 7.10336L58.9112 8.39241C58.6998 8.28051 58.4822 8.18194 58.259 8.0967C58.0258 8.00908 57.7783 7.96479 57.5289 7.9667C57.2824 7.95098 57.0416 8.04527 56.8706 8.22384C56.7086 8.42003 56.6264 8.67051 56.6402 8.92479C56.6364 9.20384 56.7343 9.47527 56.9162 9.6867C57.1979 9.98051 57.5228 10.23 57.8795 10.4257C58.3934 10.7081 58.8361 11.1048 59.1738 11.5848C59.4223 11.99 59.5505 12.4581 59.5429 12.9338Z" fill="black"/>
<path d="M64.1154 15.3166H62.3579V8.08475H60.541V6.67236H65.9327V8.08522H64.1163L64.1154 15.3166Z" fill="black"/>
<path d="M71.0494 11.7096L70.5435 9.69909C70.5136 9.57671 70.4452 9.27052 70.3388 8.77957C70.2324 8.28861 70.1692 7.96052 70.1488 7.79528C70.0922 8.13433 70.021 8.50766 69.935 8.91576C69.849 9.32385 69.6239 10.2553 69.26 11.71L71.0494 11.7096ZM71.9248 15.3167L71.3804 13.1348H68.9104L68.3623 15.3167H66.5977L68.9461 6.63623H71.3401L73.6956 15.3167H71.9248Z" fill="black"/>
<path d="M77.0029 6.67139H75.3418V15.3161H77.0029V6.67139Z" fill="black"/>
<path d="M86.1438 15.3166H83.9892L81.057 9.05332H80.9725C81.0837 9.55808 81.1383 10.0738 81.135 10.5905V15.3152H79.5V6.67236H81.6669L84.5744 12.869H84.6447C84.5564 12.3819 84.5155 11.8876 84.5217 11.3928V6.67236H86.1434L86.1438 15.3166Z" fill="black"/>
<path d="M91.9216 11.7096L91.4147 9.69909C91.3848 9.57718 91.3174 9.27052 91.21 8.77957C91.1027 8.28861 91.0409 7.96052 91.02 7.79528C90.9635 8.13433 90.8913 8.50956 90.8063 8.91576C90.7212 9.32195 90.4947 10.2553 90.1303 11.71L91.9216 11.7096ZM92.797 15.3167L92.2541 13.1348H89.7841L89.2388 15.3167H87.4746L89.8225 6.63623H92.2175L94.5721 15.3167H92.797Z" fill="black"/>
<path d="M97.5614 11.4905V13.9105H98.4501C98.7556 13.9348 99.0567 13.8224 99.2714 13.6034C99.4719 13.3286 99.5673 12.9905 99.5398 12.651C99.5398 11.8781 99.1679 11.4919 98.424 11.4919L97.5614 11.4905ZM97.5614 10.1486H98.3722C98.6615 10.1796 98.9498 10.0796 99.1579 9.87622C99.3256 9.64146 99.4058 9.3548 99.3849 9.0667C99.4125 8.78432 99.318 8.50289 99.1251 8.2948C98.8905 8.11956 98.5993 8.03622 98.3076 8.06099H97.5614V10.1486ZM95.8989 6.67241H98.3214C99.0757 6.61194 99.8295 6.79575 100.472 7.19623C100.951 7.61051 101.202 8.23146 101.147 8.86289C101.163 9.30908 101.038 9.74861 100.79 10.1196C100.564 10.4491 100.212 10.671 99.8172 10.7315V10.7905C100.276 10.8657 100.69 11.1105 100.978 11.4762C101.234 11.8729 101.359 12.3405 101.335 12.8124C101.374 13.4962 101.122 14.1653 100.644 14.6543C100.127 15.1191 99.4467 15.3591 98.7532 15.321H95.8984L95.8989 6.67241Z" fill="black"/>
<path d="M103.127 15.3166V6.67236H104.89V13.9105H107.336V15.3176L103.127 15.3166Z" fill="black"/>
<path d="M113.234 15.3166H108.959V6.67236H113.234V8.06189H110.724V10.1195H113.051V11.5152H110.724V13.9105H113.234V15.3166Z" fill="black"/>
<path d="M43.2202 26.0644H40.8789V20.1797H43.2202V20.5578H41.3121V22.7916H43.1138V23.1725H41.3121V25.6883H43.2202V26.0644Z" fill="black"/>
<path d="M48.7189 26.0644H48.1669L45.7245 20.7873H45.6893C45.7245 21.1521 45.7421 21.5035 45.7421 21.8416V26.0644H45.3184V20.1797H45.8793L48.3042 25.3964H48.3308C48.3071 24.9568 48.2952 24.5892 48.2952 24.294V20.1797H48.7194L48.7189 26.0644Z" fill="black"/>
<path d="M53.4331 26.0644H51.0918V20.1797H53.4331V20.5578H51.525V22.7916H53.3267V23.1725H51.525V25.6883H53.4331V26.0644Z" fill="black"/>
<path d="M55.9645 23.1295H56.5691C56.9035 23.1509 57.2322 23.0314 57.4745 22.7995C57.7049 22.5266 57.8193 22.1738 57.7927 21.8171C57.8255 21.4662 57.7077 21.1176 57.4683 20.859C57.1748 20.639 56.8109 20.5342 56.4456 20.5652H55.9645V23.1295ZM55.9645 23.4919V26.0633H55.5312V20.1795H56.4148C56.9102 20.1366 57.4037 20.2819 57.7975 20.5862C58.1091 20.91 58.2682 21.3528 58.2345 21.8019C58.2487 22.1528 58.1665 22.5009 57.997 22.8081C57.8089 23.0938 57.5258 23.3033 57.198 23.4L58.4805 26.0666H57.9946L56.7886 23.4952L55.9645 23.4919Z" fill="black"/>
<path d="M62.457 23.0977H63.8706V25.8835C63.3785 26.0577 62.8598 26.1463 62.3377 26.1449C61.6913 26.173 61.0733 25.8692 60.699 25.3401C60.2748 24.6758 60.0706 23.8935 60.1162 23.1058C60.0677 22.3192 60.28 21.5377 60.7194 20.8839C61.1203 20.3587 61.7544 20.0635 62.4133 20.0954C62.8997 20.0944 63.3775 20.2254 63.796 20.4735L63.5884 20.8196C63.235 20.5992 62.8294 20.4768 62.4133 20.4654C61.8699 20.4354 61.3488 20.693 61.0415 21.1435C60.6938 21.7392 60.5318 22.4254 60.5755 23.1139C60.5351 23.7992 60.6995 24.4806 61.0467 25.072C61.3364 25.522 61.8428 25.7868 62.3767 25.7668C62.7344 25.7749 63.0906 25.7244 63.4321 25.6173V23.4744H62.456L62.457 23.0977Z" fill="black"/>
<path d="M66.8516 23.2182L67.9027 20.1792H68.3621L67.0591 23.7678V26.0659H66.6259V23.7678L65.332 20.1811H65.7914L66.8516 23.2182Z" fill="black"/>
<path d="M75.1657 24.5225C75.1843 24.9577 75.0242 25.3815 74.7235 25.6958C74.4285 25.9958 74.0219 26.1587 73.602 26.1449C73.1788 26.161 72.757 26.0915 72.3613 25.9396V25.511C72.5423 25.5977 72.7342 25.6601 72.9313 25.6963C73.1522 25.7415 73.3769 25.7644 73.6025 25.7649C73.9098 25.7744 74.2067 25.6491 74.4152 25.4225C74.6304 25.1858 74.7449 24.8734 74.7335 24.5529C74.7482 24.2772 74.6689 24.0044 74.5083 23.7801C74.268 23.5268 73.973 23.3315 73.6467 23.2087C73.3788 23.0949 73.128 22.9453 72.9005 22.7634C72.7409 22.6272 72.615 22.4553 72.5333 22.262C72.4487 22.0439 72.4079 21.8115 72.414 21.5777C72.4088 21.3072 72.4763 21.0401 72.6093 20.8049C72.7366 20.582 72.9247 20.4001 73.1517 20.281C73.3869 20.1558 73.65 20.091 73.9165 20.0939C74.1459 20.0915 74.3753 20.1172 74.5986 20.1701C74.7648 20.2082 74.9273 20.2634 75.0821 20.3349L74.914 20.7134C74.6024 20.5639 74.2618 20.4858 73.9165 20.4844C73.897 20.4834 73.878 20.4829 73.8585 20.4829C73.3004 20.4829 72.8411 20.943 72.8411 21.503C72.8411 21.523 72.842 21.543 72.843 21.563C72.8263 21.8363 72.9024 22.1072 73.0596 22.3315C73.2976 22.5801 73.5868 22.7739 73.907 22.8991C74.2756 23.0444 74.6038 23.2768 74.8632 23.5772C75.0688 23.8482 75.1757 24.182 75.1657 24.5225Z" fill="black"/>
<path d="M77.4544 23.1139C77.416 23.7944 77.5395 24.4739 77.815 25.0968C78.0064 25.5053 78.4177 25.7672 78.8676 25.7672C79.315 25.7672 79.725 25.5082 79.9173 25.103C80.1938 24.4782 80.3168 23.7963 80.2769 23.1144C80.3149 22.4377 80.1942 21.7615 79.924 21.1401C79.7401 20.7296 79.3279 20.4668 78.879 20.4734C78.4206 20.462 77.9979 20.7292 77.8102 21.1487C77.54 21.7668 77.4183 22.4401 77.4544 23.1139ZM80.7272 23.1139C80.7723 23.8925 80.6065 24.6687 80.2484 25.3606C79.9567 25.8468 79.4304 26.1453 78.8642 26.1453C78.2957 26.1453 77.7675 25.8439 77.4768 25.3544C77.1229 24.6606 76.9586 23.8844 77.0018 23.1063C76.9495 22.3225 77.1115 21.5387 77.4701 20.8401C77.766 20.3525 78.3066 20.0658 78.8752 20.0953C79.4438 20.0772 79.9767 20.3801 80.2527 20.8782C80.6075 21.5672 80.7714 22.3396 80.7272 23.1139Z" fill="black"/>
<path d="M82.8809 26.0644V20.1797H83.3145V25.6859H85.1343V26.0644H82.8809Z" fill="black"/>
<path d="M90.0921 20.1797V24.1525C90.0921 25.4806 89.5711 26.1449 88.5284 26.1449C88.072 26.1735 87.6288 25.9816 87.3357 25.6297C87.036 25.1987 86.8906 24.6778 86.9248 24.1535V20.1797H87.3623V24.2006C87.3348 24.6116 87.4412 25.0206 87.6654 25.3659C87.8691 25.634 88.1931 25.7844 88.5289 25.7664C88.8595 25.7854 89.1778 25.6345 89.3725 25.3659C89.5858 25.0106 89.6855 24.5983 89.6575 24.1844V20.1797H90.0921Z" fill="black"/>
<path d="M93.4828 26.0644H93.0501V20.5578H91.7676V20.1797H94.771V20.5578H93.4852L93.4828 26.0644Z" fill="black"/>
<path d="M96.9425 20.1797H96.5098V26.0644H96.9425V20.1797Z" fill="black"/>
<path d="M99.5482 23.1139C99.5097 23.7944 99.6332 24.4739 99.9087 25.0968C100.1 25.5053 100.512 25.7672 100.961 25.7672C101.409 25.7672 101.819 25.5082 102.011 25.103C102.287 24.4782 102.411 23.7963 102.372 23.1139C102.41 22.4372 102.289 21.7611 102.019 21.1396C101.835 20.7292 101.423 20.4663 100.974 20.473C100.515 20.4611 100.092 20.7287 99.904 21.1487C99.6337 21.7668 99.5121 22.4401 99.5482 23.1139ZM102.821 23.1139C102.866 23.8925 102.7 24.6687 102.342 25.3606C102.05 25.8468 101.524 26.1453 100.958 26.1453C100.389 26.1453 99.8612 25.8439 99.5705 25.3544C99.2167 24.6606 99.0523 23.8844 99.0955 23.1063C99.0433 22.3225 99.2052 21.5387 99.5639 20.8401C99.8598 20.3525 100.4 20.0658 100.969 20.0953C101.538 20.0772 102.07 20.3801 102.346 20.8782C102.701 21.5672 102.865 22.3396 102.821 23.1139Z" fill="black"/>
<path d="M108.378 26.0644H107.826L105.383 20.7873H105.348C105.383 21.1521 105.4 21.5035 105.401 21.8416V26.0644H104.977V20.1797H105.538L107.963 25.3964H107.989C107.966 24.9568 107.954 24.5892 107.953 24.294V20.1797H108.378V26.0644Z" fill="black"/>
<path d="M113.228 24.5225C113.247 24.9572 113.087 25.3815 112.787 25.6958C112.492 25.9958 112.084 26.1587 111.665 26.1449C111.241 26.161 110.82 26.091 110.424 25.9396V25.511C110.605 25.5977 110.796 25.6601 110.994 25.6963C111.215 25.741 111.439 25.7644 111.665 25.7649C111.972 25.7744 112.269 25.6491 112.478 25.4225C112.693 25.1858 112.807 24.8734 112.796 24.5529C112.811 24.2772 112.731 24.0044 112.571 23.7801C112.33 23.5272 112.036 23.332 111.71 23.2087C111.442 23.0953 111.19 22.9453 110.963 22.7634C110.803 22.6277 110.677 22.4558 110.597 22.262C110.512 22.0439 110.471 21.8115 110.478 21.5777C110.472 21.3072 110.539 21.0406 110.672 20.8049C110.799 20.582 110.987 20.4001 111.214 20.281C111.449 20.1558 111.713 20.091 111.979 20.0939C112.208 20.0915 112.438 20.1172 112.661 20.1701C112.827 20.2077 112.99 20.2629 113.145 20.3349L112.976 20.7134C112.665 20.5639 112.324 20.4858 111.979 20.4844C111.96 20.4834 111.941 20.4829 111.922 20.4829C111.364 20.4829 110.904 20.9439 110.904 21.5044C110.904 21.5239 110.905 21.5434 110.905 21.563C110.889 21.8363 110.965 22.1072 111.122 22.3315C111.36 22.5801 111.649 22.7739 111.969 22.8991C112.338 23.0444 112.666 23.2768 112.926 23.5772C113.131 23.8482 113.238 24.182 113.228 24.5225Z" fill="black"/>
<path d="M20.0673 25.204C19.3396 26.4492 18.326 27.503 17.1114 28.2778C15.932 29.0182 14.6324 29.5468 13.2715 29.8392C13.7299 29.873 14.1973 29.893 14.6765 29.893C17.8115 29.893 20.4844 29.1787 22.695 27.7502C24.9057 26.3216 26.5449 23.9454 27.6132 20.6216H21.1969C21.2311 22.2221 20.8416 23.8035 20.0673 25.204Z" fill="black"/>
<path d="M27.56 11.0305C27.0945 9.1391 26.268 7.35576 25.127 5.7791C23.997 4.23624 22.5235 2.9791 20.824 2.10672C18.9154 1.15957 16.8055 0.691003 14.6765 0.741479C14.0894 0.741955 13.5028 0.773384 12.919 0.836717C14.0842 1.11529 15.2 1.57148 16.2274 2.18957C17.346 2.93005 18.3122 3.8791 19.0731 4.98576C20.5029 6.90386 21.4306 10.5953 21.5773 12.3667H11.8398C11.9396 12.39 12.0379 12.411 12.1381 12.4343C13.2677 12.6905 14.3835 13.0043 15.4812 13.3748C16.5148 13.7196 17.4923 14.2148 18.382 14.8448C19.219 15.4439 19.9158 16.2186 20.4245 17.1143C20.4383 17.1391 20.4502 17.1653 20.4639 17.1901H28.0948C28.243 15.1215 28.0625 13.0424 27.56 11.0305Z" fill="black"/>
<path d="M10.0253 22.5504C9.01075 21.5666 8.41035 20.04 8.2118 17.979C7.11597 17.6819 0.754297 16.0471 0.576172 15.979C0.576172 15.979 0.584247 20.5438 2.60822 22.9061C4.6455 25.2838 10.2082 25.9466 12.3272 23.8547C11.466 23.6128 10.6761 23.1652 10.0253 22.5504Z" fill="black"/>
<path d="M11.9224 6.80426C11.7248 6.60997 11.4997 6.44569 11.2546 6.31664C10.1217 5.75759 8.87055 5.4814 7.608 5.51235C7.12825 5.51473 6.64945 5.54235 6.17255 5.59473C5.6871 5.64283 5.2121 5.76426 4.76275 5.95426C4.3457 6.13521 3.9771 6.41188 3.68545 6.76092C3.37338 7.1633 3.21615 7.66521 3.24323 8.17426C3.22518 8.83426 3.51018 9.46807 4.01605 9.89092C4.61313 10.3771 5.29808 10.7438 6.03338 10.9704C6.6846 11.1885 7.41468 11.3885 8.21505 11.5719C8.60313 7.89521 11.3334 6.9633 11.9224 6.80426Z" fill="black"/>
</g>
<defs>
<clipPath id="clip0_116_4558">
<rect width="114" height="30" fill="white" transform="translate(0 0.5)"/>
</clipPath>
</defs>
</svg>
