<svg width="112" height="17" viewBox="0 0 112 17" fill="none" xmlns="http://www.w3.org/2000/svg">
<g clip-path="url(#clip0_116_4402)">
<path fill-rule="evenodd" clip-rule="evenodd" d="M38.6168 7.96109C39.203 7.51619 39.9286 7.27413 40.6751 7.27464C41.4237 7.26225 42.1531 7.50535 42.7334 7.96109C43.1911 8.30071 43.5442 8.75438 43.7548 9.27258H37.6109C37.8226 8.75903 38.1688 8.3069 38.6168 7.96109ZM40.6751 4.90974C39.1494 4.89374 37.6833 5.48884 36.6297 6.55206C35.5285 7.57555 34.9117 8.9918 34.9261 10.4654C34.909 11.9343 35.5263 13.3459 36.6292 14.3606C37.6827 15.4238 39.1489 16.0189 40.6751 16.0029C41.5775 16.0014 42.466 15.7887 43.2645 15.3835C44.0908 14.967 44.8095 14.3776 45.3689 13.6592L45.4874 13.5084L43.4397 12.2295L43.3358 12.3518C42.7168 13.1704 41.7265 13.6555 40.6751 13.655C39.9259 13.655 39.1987 13.4068 38.6168 12.9521C38.1639 12.6104 37.8156 12.1567 37.6093 11.6395H46.3276L46.4139 10.9294C46.4332 10.775 46.4434 10.6202 46.4439 10.4648C46.4578 8.99129 45.841 7.57503 44.7393 6.55206C43.6766 5.4909 42.2051 4.89735 40.6746 4.91129" fill="black"/>
<path fill-rule="evenodd" clip-rule="evenodd" d="M53.4795 13.6553C52.598 13.6697 51.7481 13.3332 51.1318 12.7262C50.5016 12.1327 50.1522 11.3141 50.1672 10.4651C50.1522 9.61603 50.5016 8.79745 51.1318 8.2039C51.7486 7.59745 52.598 7.26145 53.4795 7.27641C54.3611 7.26248 55.211 7.59848 55.8272 8.20545C56.4574 8.79899 56.8063 9.61757 56.7918 10.4666C56.8068 11.3156 56.4574 12.1342 55.8272 12.7278C55.2104 13.3342 54.3611 13.6702 53.4795 13.6553ZM56.7908 6.34274C55.8321 5.40803 54.517 4.89035 53.1532 4.90996C52.419 4.90428 51.6918 5.04519 51.0171 5.32286C50.3425 5.61086 49.7466 6.04545 49.276 6.59306C48.2573 7.63977 47.7021 9.0297 47.7295 10.464C47.7027 11.8885 48.2493 13.2697 49.2541 14.3154C50.2262 15.4101 51.6581 16.03 53.1532 16.0036C54.5175 16.031 55.8347 15.5143 56.7913 14.5771V15.6893H59.2483V5.24235H56.7908V6.34274Z" fill="black"/>
<path fill-rule="evenodd" clip-rule="evenodd" d="M72.177 4.90993C70.9445 4.87019 69.7709 5.43226 69.0603 6.4031C68.4906 5.45239 67.4215 4.87793 66.2823 4.90993C65.382 4.88826 64.5042 5.18606 63.8172 5.74658V5.24335H61.3789V15.6888H63.8172V9.48542C63.807 8.92026 64.0101 8.37006 64.3879 7.93703C64.7207 7.51948 65.2378 7.27484 65.7844 7.27587C66.345 7.27484 66.8755 7.52516 67.2184 7.95252C67.5818 8.38503 67.772 8.92903 67.7543 9.48542V15.6888H70.2119V9.48542C70.1964 8.92232 70.3925 8.37264 70.7633 7.93703C71.102 7.5169 71.625 7.27226 72.177 7.27587C72.7316 7.27794 73.2547 7.52826 73.5917 7.95252C73.962 8.38245 74.1582 8.92697 74.1448 9.48542V15.6888H76.583V9.48542C76.6088 8.31897 76.1731 7.18555 75.3644 6.3169C74.5692 5.41935 73.402 4.90426 72.177 4.90993Z" fill="black"/>
<path fill-rule="evenodd" clip-rule="evenodd" d="M79.7583 0.49993C79.3419 0.493737 78.9411 0.652705 78.6501 0.939672C78.3522 1.21993 78.1871 1.60599 78.1935 2.00703C78.1871 2.40754 78.3522 2.79412 78.6501 3.07387C78.9411 3.36083 79.3419 3.5198 79.7583 3.51361C80.1747 3.5198 80.5756 3.36083 80.8665 3.07387C81.164 2.79361 81.3295 2.40754 81.3231 2.00703C81.3295 1.60599 81.1645 1.21993 80.8665 0.939672C80.5756 0.652705 80.1747 0.493737 79.7583 0.49993Z" fill="black"/>
<path d="M80.9773 5.24316H78.5391V15.6891H80.9773V5.24316Z" fill="black"/>
<path fill-rule="evenodd" clip-rule="evenodd" d="M104.173 7.96127C104.759 7.51637 105.484 7.27431 106.231 7.27482C106.979 7.26244 107.709 7.50605 108.289 7.96127C108.746 8.3014 109.099 8.75456 109.311 9.27276H103.166C103.378 8.75921 103.725 8.3076 104.173 7.96127ZM110.295 6.55224C109.232 5.49108 107.761 4.89753 106.23 4.91147C104.705 4.89495 103.239 5.49005 102.185 6.55224C101.083 7.57521 100.467 8.99147 100.481 10.4655C100.464 11.9344 101.082 13.346 102.185 14.3608C103.238 15.424 104.705 16.0191 106.231 16.0031C107.133 16.0015 108.022 15.7894 108.82 15.3837C109.646 14.9672 110.365 14.3778 110.925 13.6593L111.043 13.5086L108.995 12.2297L108.892 12.352C108.273 13.1706 107.282 13.6557 106.231 13.6552C105.482 13.6552 104.754 13.407 104.173 12.9522C103.72 12.6106 103.371 12.1569 103.165 11.6397H111.883L111.97 10.9295C111.988 10.7752 111.999 10.6204 112 10.465C112.014 8.99147 111.397 7.57521 110.295 6.55224Z" fill="black"/>
<path fill-rule="evenodd" clip-rule="evenodd" d="M91.205 12.7265C90.5887 13.3335 89.7388 13.67 88.8573 13.6556C87.9757 13.67 87.1258 13.3335 86.5096 12.7265C85.8794 12.133 85.53 11.3144 85.545 10.4654C85.5305 9.61633 85.8794 8.79775 86.5096 8.2042C87.1258 7.59723 87.9757 7.26123 88.8573 7.27517C89.7388 7.26123 90.5882 7.59775 91.205 8.20471C91.8352 8.79826 92.1841 9.61684 92.1696 10.4659C92.1846 11.3149 91.8352 12.133 91.205 12.7265ZM93.0806 6.59491C92.1112 5.50949 90.69 4.89168 89.2035 4.90975C88.4409 4.89839 87.6853 5.05271 86.9935 5.36188C86.4587 5.6122 85.9699 5.9451 85.5466 6.34768V0.523682H83.1094V15.6886H85.5466V14.5712C85.9667 14.9784 86.456 15.3134 86.9935 15.5611C87.6869 15.8636 88.4414 16.0148 89.2024 16.0034C90.6959 16.0251 92.1246 15.4073 93.1004 14.3177C94.0972 13.2669 94.6427 11.8894 94.625 10.4659C94.6438 9.03362 94.0907 7.64729 93.0817 6.59491" fill="black"/>
<path d="M98.7742 0.523682H96.3359V15.6886H98.7742V0.523682Z" fill="black"/>
<path fill-rule="evenodd" clip-rule="evenodd" d="M30.2183 12.7265C29.6021 13.3335 28.7521 13.6695 27.8706 13.6556C26.9891 13.67 26.1392 13.3335 25.5229 12.7265C24.8927 12.133 24.5433 11.3144 24.5583 10.4654C24.5438 9.61633 24.8927 8.79775 25.5229 8.2042C26.1392 7.59723 26.9891 7.26071 27.8706 7.27517C28.7521 7.26123 29.6015 7.59775 30.2183 8.20471C30.8485 8.79826 31.1974 9.61684 31.1829 10.4659C31.1979 11.3149 30.8485 12.133 30.2183 12.7265ZM32.0939 6.59491C31.1245 5.50897 29.7028 4.89117 28.2157 4.90975C27.4532 4.89839 26.6981 5.05271 26.0063 5.36188C25.4714 5.6122 24.9827 5.9451 24.5594 6.34768V0.523682H22.1211V15.6886H24.5594V14.5706C24.979 14.9784 25.4688 15.3134 26.0063 15.5611C26.6992 15.8636 27.4532 16.0143 28.2141 16.0034C29.7076 16.0251 31.1368 15.4068 32.1127 14.3177C33.1094 13.2669 33.655 11.8894 33.6373 10.4659C33.6566 9.0331 33.1035 7.64678 32.0939 6.59491Z" fill="black"/>
<path fill-rule="evenodd" clip-rule="evenodd" d="M8.03345 14.0659C4.72758 14.0659 2.00743 11.4465 2.00689 8.26255H14.06C14.0595 11.446 11.3393 14.0659 8.03399 14.0659H8.03345ZM8.03345 0.523193C3.83212 0.522677 0.304383 3.69687 0.019292 7.73403C0.00535899 7.90797 0 8.08448 0 8.26203C0 8.43958 0.00535885 8.60423 0.0176842 8.77455C0.295273 12.8179 3.82622 16.0014 8.03345 16.0014C12.4406 15.9998 16.0669 12.5072 16.0685 8.26255C16.0669 4.01739 12.4411 0.524742 8.03345 0.523193Z" fill="black"/>
</g>
<defs>
<clipPath id="clip0_116_4402">
<rect width="112" height="16" fill="white" transform="translate(0 0.5)"/>
</clipPath>
</defs>
</svg>
