<svg width="100" height="20" viewBox="0 0 100 20" fill="none" xmlns="http://www.w3.org/2000/svg">
<path d="M2.41674 1.49351H0.333984V0.814941H11.9995L12.1478 6.37564H11.5788C11.2857 4.57564 10.9685 2.66851 9.57881 1.85065C9.11674 1.57922 8.27191 1.49708 7.40985 1.49708H5.1133V9.32206C7.13398 9.32206 8.20985 8.91492 8.31329 5.99707H8.90295V13.6042H8.31329C8.12364 10.5792 7.38571 9.92563 5.1133 10.0042V18.347H7.19605V19.0292H0.333984V18.347H2.41674V1.49351Z" fill="black"/>
<path d="M17.8921 18.3435H19.9749V19.0256H13.1094V18.3435H15.1921V1.49351H13.1094V0.814941H19.9749V1.49708H17.8921V18.3435Z" fill="black"/>
<path d="M21.8516 0.814941H27.6412C29.9585 0.814941 31.0929 1.16851 32.1895 2.03994C34.3792 3.78636 35.4343 6.64707 35.4343 9.91848C35.4343 13.0792 34.2964 16.3506 32.086 17.9327C30.486 19.0792 28.6757 19.022 26.9274 19.022H21.8516V18.3399H23.9136V1.49351H21.8516V0.814941ZM26.6102 18.3435C29.2826 18.3435 31.1171 18.5613 32.0205 14.9899C32.4826 13.1649 32.5481 10.9828 32.5481 9.23991C32.5481 5.75064 32.0205 3.5435 31.3895 2.75065C30.5274 1.66137 29.0309 1.49708 26.6102 1.49708V18.3435Z" fill="black"/>
<path d="M49.9987 0.814941V1.49708H47.8952V12.947C47.8952 15.672 47.4952 17.0077 46.6331 18.0185C45.7676 19.0256 44.4435 19.4363 42.5469 19.4363C41.0538 19.4363 39.7055 18.8363 38.8193 17.9899C37.9159 17.1185 37.5124 15.3435 37.5124 12.2935V1.49351H35.4297V0.814941H42.2952V1.49708H40.209V11.4756C40.209 15.2649 39.8918 18.5649 43.7055 18.5649C46.1676 18.5649 47.2228 16.547 47.2228 13.5506V1.49351H45.1814V0.814941H49.9987Z" fill="black"/>
<path d="M61.476 13.5936V19.1865H61.0139L60.1518 17.8793C59.2035 18.9436 57.7932 19.4329 56.5518 19.4329C52.8449 19.4329 50.0449 14.5543 50.0449 10.0294C50.0449 6.48651 51.4966 3.13295 53.8553 1.30796C54.6966 0.682958 55.7518 0.407959 56.7173 0.407959C57.8966 0.407959 59.0553 0.843672 59.9794 1.82581L60.8242 0.675815H61.2863V5.93651H60.676C60.3587 2.96509 58.7587 1.08296 56.6966 1.08296C55.3484 1.08296 54.6553 1.4651 53.9173 2.93652C52.9277 4.89723 53.138 8.06151 53.138 10.2686C53.138 11.8222 53.0966 13.9472 53.4966 15.7222C53.8966 17.465 54.8863 18.64 56.4863 18.7472C59.076 18.9115 60.276 16.5401 60.8863 13.5936H61.476Z" fill="black"/>
<path d="M68.2129 18.3435H70.2957V19.0256H63.4336V18.3435H65.5198V1.49351H63.4336V0.814941H70.2957V1.49708H68.2129V18.3435Z" fill="black"/>
<path d="M70.8027 19.0257V18.34H72.5096L77.5407 0.404297H78.2579L83.0786 18.3435H84.7648V19.0257H78.0889V18.3435H80.2786L78.9958 13.5185H74.4476L73.1407 18.3435H75.2889V19.0257H70.8027ZM74.6786 12.8364H78.7855L76.8062 5.22928L74.6786 12.8364Z" fill="black"/>
<path d="M97.2926 19.3756H96.6616L87.734 2.03994V18.3435H89.7961V19.0256H84.9961V18.3435H87.0582V1.49351H84.9961V0.814941H90.3858L96.6168 12.7256V1.49351H94.5961V0.814941H99.3961V1.49708H97.2892V19.3756H97.2926Z" fill="black"/>
</svg>
