<svg width="176" height="19" viewBox="0 0 176 19" fill="none" xmlns="http://www.w3.org/2000/svg">
<g clip-path="url(#clip0_116_4426)">
<g clip-path="url(#clip1_116_4426)">
<g clip-path="url(#clip2_116_4426)">
<mask id="mask0_116_4426" style="mask-type:luminance" maskUnits="userSpaceOnUse" x="0" y="0" width="176" height="19">
<path d="M176 0.000244141H0V18.4098H176V0.000244141Z" fill="white"/>
</mask>
<g mask="url(#mask0_116_4426)">
<path d="M3.04674 13.6227C3.41431 14.1895 3.93564 14.64 4.54978 14.9215C5.14061 15.1961 5.78412 15.3387 6.43563 15.3395C6.81038 15.3374 7.18278 15.2801 7.5409 15.1697C7.9105 15.0614 8.25855 14.8899 8.56962 14.6628C8.87639 14.4388 9.13396 14.1543 9.32642 13.8268C9.52728 13.4764 9.62889 13.0779 9.62034 12.674C9.63689 12.4101 9.59257 12.1458 9.4908 11.9017C9.38903 11.6576 9.23253 11.4401 9.03338 11.266C8.59552 10.9169 8.10318 10.6422 7.57611 10.4529C6.99589 10.2353 6.36346 10.0243 5.67882 9.82019C5.01082 9.6249 4.37231 9.34013 3.78067 8.97363C3.19232 8.6032 2.69486 8.10514 2.32515 7.51635C1.89769 6.76492 1.69403 5.90692 1.73819 5.04355C1.76178 3.93664 2.21495 2.88229 3.00187 2.10347C3.48919 1.6347 4.06144 1.26316 4.68795 1.00875C5.47403 0.69654 6.31522 0.546862 7.16074 0.568747C8.00994 0.565953 8.85494 0.687812 9.66875 0.930427C10.4995 1.19474 11.2307 1.70468 11.7658 2.39299L10.0058 3.99811C9.71965 3.56247 9.32225 3.21125 8.85475 2.98083C8.32907 2.71879 7.74803 2.58719 7.16074 2.59715C6.64936 2.5817 6.13959 2.66199 5.6577 2.83387C5.29838 2.96649 4.97141 3.17408 4.69851 3.44283C4.47113 3.66899 4.29732 3.94323 4.18987 4.24539C4.09791 4.49955 4.04855 4.76715 4.04379 5.03739C4.0249 5.32412 4.06749 5.61158 4.16872 5.88051C4.26995 6.14944 4.42747 6.39364 4.63074 6.59675C5.05702 6.97887 5.55138 7.27739 6.08803 7.47675C6.70833 7.71572 7.34179 7.91904 7.98531 8.08571C8.64715 8.25686 9.28465 8.51115 9.88258 8.84251C10.4602 9.16441 10.9582 9.6119 11.3399 10.1519C11.766 10.8296 11.9708 11.6231 11.9259 12.4223C11.937 13.1392 11.7867 13.8493 11.4859 14.5C11.2075 15.0988 10.8036 15.6306 10.3015 16.0594C9.78263 16.4924 9.18501 16.8211 8.54146 17.0274C7.84179 17.2569 7.10949 17.3714 6.37315 17.3662C5.37566 17.3739 4.38576 17.1924 3.45594 16.8311C2.57762 16.5008 1.81589 15.9193 1.26562 15.1591L3.04674 13.6227Z" fill="black"/>
<path d="M21.4788 3.00707H16.3281V0.973389H28.796V3.00795H23.6471V16.9665H21.4788V3.00707Z" fill="black"/>
<path d="M35.9797 0.973389V10.7775C35.9827 11.2995 36.0507 11.8192 36.1821 12.3245C36.3158 12.855 36.5457 13.3564 36.8605 13.8038C37.1839 14.2633 37.6088 14.6421 38.1022 14.9108C38.6949 15.1932 39.343 15.3397 39.9995 15.3397C40.6559 15.3397 41.3041 15.1932 41.8968 14.9108C42.3905 14.6418 42.8159 14.263 43.1402 13.8038C43.4544 13.3562 43.6837 12.8548 43.8169 12.3245C43.9487 11.8193 44.0173 11.2996 44.0211 10.7775V0.973389H46.1885V11.1163C46.2012 11.9862 46.0402 12.8499 45.7151 13.6568C45.4134 14.3954 44.9683 15.0668 44.4057 15.6324C43.8465 16.1921 43.1778 16.6304 42.4415 16.9199C40.8711 17.5228 39.1331 17.5228 37.5628 16.9199C36.8257 16.6308 36.1564 16.1925 35.5969 15.6324C35.0341 15.0669 34.589 14.3954 34.2874 13.6568C33.9627 12.8497 33.8014 11.9862 33.8131 11.1163V0.973389H35.9797Z" fill="black"/>
<path d="M53.2137 0.973397H58.7929C59.7964 0.956438 60.7969 1.08599 61.7629 1.35796C62.5495 1.58421 63.2963 1.93061 63.977 2.38492C64.5747 2.78816 65.1011 3.28808 65.5346 3.8642C65.9328 4.39316 66.263 4.96995 66.5176 5.58108C66.7524 6.1478 66.9268 6.73774 67.0377 7.34108C67.1377 7.8778 67.1904 8.42226 67.1952 8.9682C67.1967 9.98525 67.0053 10.9934 66.6311 11.9391C66.2545 12.8953 65.6854 13.764 64.9591 14.4911C64.1746 15.268 63.2414 15.8786 62.2153 16.2863C61.0109 16.7594 59.725 16.99 58.4313 16.9648H53.2129L53.2137 0.973397ZM55.3821 14.932H58.1145C58.9975 14.937 59.8764 14.8116 60.7228 14.5597C61.5076 14.3305 62.2402 13.9506 62.8797 13.4412C63.5028 12.938 64.0048 12.301 64.3484 11.5774C64.7251 10.7605 64.9105 9.86843 64.8905 8.96908C64.8779 8.36306 64.7946 7.76059 64.6423 7.17388C64.4655 6.4652 64.1464 5.79991 63.7042 5.21852C63.1941 4.55895 62.542 4.02269 61.7964 3.64948C60.8099 3.18184 59.7245 2.96078 58.6337 3.00532H55.3821V14.932Z" fill="black"/>
<path d="M73.3164 0.973389H75.4847V16.9665H73.3164V0.973389Z" fill="black"/>
<path d="M89.942 17.3722C88.7886 17.385 87.6443 17.1663 86.5769 16.7289C85.5875 16.3237 84.6917 15.7199 83.9448 14.9549C83.2043 14.1868 82.621 13.2813 82.228 12.2893C81.807 11.2332 81.5957 10.1051 81.6058 8.96821C81.5957 7.83186 81.807 6.70442 82.228 5.64885C82.6212 4.65699 83.2044 3.75151 83.9448 2.98333C84.6917 2.21829 85.5875 1.6145 86.5769 1.20925C88.7385 0.350822 91.1464 0.350822 93.308 1.20925C94.2972 1.6145 95.193 2.21796 95.9401 2.98245C96.678 3.75064 97.2599 4.65467 97.6535 5.64445C98.0732 6.70033 98.2839 7.82764 98.2739 8.96381C98.2839 10.1006 98.0732 11.2285 97.6535 12.2849C97.2594 13.2763 96.6763 14.1816 95.9366 14.9505C95.1895 15.7153 94.2938 16.319 93.3045 16.7245C92.2382 17.1628 91.0949 17.383 89.942 17.3722ZM89.942 15.3377C90.7635 15.3531 91.5789 15.1939 92.3342 14.8706C93.0896 14.5473 93.7676 14.0673 94.3236 13.4624C94.8601 12.875 95.275 12.187 95.5441 11.4384C96.1158 9.83911 96.1158 8.09116 95.5441 6.49189C95.1316 5.33644 94.3719 4.33682 93.369 3.63002C92.3662 2.92322 91.1694 2.54382 89.9425 2.54382C88.7156 2.54382 87.5187 2.92322 86.5159 3.63002C85.5131 4.33682 84.7533 5.33644 84.3408 6.49189C83.7673 8.09084 83.7673 9.83942 84.3408 11.4384C84.6089 12.1872 85.0232 12.8752 85.5596 13.4624C86.1159 14.0672 86.7942 14.5471 87.5496 14.8703C88.305 15.1936 89.1205 15.3529 89.942 15.3377Z" fill="black"/>
<path d="M113.135 1.07983H115.303V7.99223H115.483L122.553 1.07983H125.581L117.854 8.46655L126.099 17.0721H122.937L115.483 9.07551H115.302V17.0721H113.135V1.07983Z" fill="black"/>
<path d="M135.789 1.07983H137.757L144.6 17.073H142.069L140.465 13.12H132.852L131.268 17.073H128.738L135.789 1.07983ZM139.674 11.2227L136.693 3.88087H136.647L133.62 11.2227H139.674Z" fill="black"/>
<path d="M151.51 3.11351H146.359V1.07983H158.827V3.11439H153.678V17.073H151.51V3.11351Z" fill="black"/>
<path d="M163.572 1.07983H173.895V3.11439H165.741V7.87959H173.331V9.91151H165.741V15.0384H174.302V17.073H163.572V1.07983Z" fill="black"/>
</g>
</g>
</g>
</g>
<defs>
<clipPath id="clip0_116_4426">
<rect width="176" height="18.41" fill="white"/>
</clipPath>
<clipPath id="clip1_116_4426">
<rect width="176" height="18.41" fill="white"/>
</clipPath>
<clipPath id="clip2_116_4426">
<rect width="176" height="18.4096" fill="white" transform="translate(0 0.000244141)"/>
</clipPath>
</defs>
</svg>
