<svg width="176" height="32" viewBox="0 0 176 32" fill="none" xmlns="http://www.w3.org/2000/svg">
<g clip-path="url(#clip0_116_4707)">
<mask id="mask0_116_4707" style="mask-type:luminance" maskUnits="userSpaceOnUse" x="0" y="0" width="176" height="32">
<path d="M176 0.5H0V31.4859H176V0.5Z" fill="white"/>
</mask>
<g mask="url(#mask0_116_4707)">
<path d="M34.2807 24.5738L35.7128 21.3752C37.2283 22.2444 38.7438 22.7506 40.6987 22.7506C43.5645 22.7506 44.9133 21.3475 44.9133 18.6537V17.9236C43.6736 19.4395 42.3234 20.3656 40.0926 20.3656C36.6494 20.3656 33.5352 17.8124 33.5352 13.3497V13.294C33.5352 8.80498 36.704 6.27808 40.0926 6.27808C42.3794 6.27808 43.7296 7.2599 44.8587 8.52258V6.55901H49.046V18.2045C49.046 20.8982 48.4125 22.8633 47.1729 24.126C45.7953 25.5293 43.6736 26.1467 40.8093 26.1467C38.4119 26.1467 36.1538 25.5849 34.2807 24.5752M44.9147 13.3511V13.2955C44.9147 11.247 43.3447 9.81605 41.3064 9.81605C39.268 9.81605 37.7253 11.247 37.7253 13.2955V13.3511C37.7253 15.4274 39.268 16.8306 41.3064 16.8306C43.3447 16.8306 44.9147 15.3996 44.9147 13.3511Z" fill="black"/>
<path d="M50.8867 6.55901H55.074V8.69233C56.0378 7.42959 57.3048 6.27954 59.4264 6.27954C61.3541 6.27954 62.815 7.15016 63.5865 8.66456C64.8805 7.12085 66.4236 6.27954 68.4346 6.27954C71.5474 6.27954 73.4202 8.18757 73.4202 11.8075V21.6006H69.2328V13.2106C69.2328 11.19 68.3509 10.1526 66.7812 10.1526C65.2108 10.1526 64.2472 11.19 64.2472 13.2106V21.6006H60.0599V13.2106C60.0599 11.19 59.1779 10.1526 57.6079 10.1526C56.0378 10.1526 55.074 11.19 55.074 13.2106V21.6006H50.8867V6.55901Z" fill="black"/>
<path d="M75.2188 6.55898H79.4062V9.58927C80.2608 7.51297 81.6372 6.16538 84.1179 6.27805V10.7393H83.8967C81.1141 10.7393 79.4062 12.4513 79.4062 16.0434V21.5991H75.2188V6.55898Z" fill="black"/>
<path d="M88.947 17.1101H84.4844V21.6006H88.947V17.1101Z" fill="black"/>
<path d="M91.5605 14.1148V14.0563C91.5605 9.69452 94.5699 6.21802 98.5621 6.21802C102.554 6.21802 105.332 9.63602 105.332 14.0856C105.332 14.3504 105.332 14.4396 105.303 14.6753H93.0658C93.3261 18.418 95.9593 20.5982 98.8521 20.5982C101.138 20.5982 102.701 19.5667 103.914 18.2411L104.898 19.1248C103.394 20.7753 101.628 21.9531 98.7945 21.9531C94.9176 21.9531 91.5618 18.8 91.5618 14.1148M103.799 13.3774C103.597 10.3427 101.89 7.54218 98.5057 7.54218C95.5844 7.54218 93.3274 10.0472 93.0677 13.3774H103.801H103.799Z" fill="black"/>
<path d="M107.215 6.57211H108.633V9.37121C109.616 7.60365 111.265 6.21802 113.956 6.21802C117.688 6.21802 119.858 8.8108 119.858 12.4058V21.6005H118.44V12.6721C118.44 9.57752 116.734 7.54515 113.755 7.54515C110.776 7.54515 108.634 9.78382 108.634 12.9077V21.6005H107.216V6.57211H107.215Z" fill="black"/>
<path d="M121.66 14.1148V14.0563C121.66 9.69452 124.668 6.21802 128.661 6.21802C132.655 6.21802 135.432 9.63602 135.432 14.0856C135.432 14.3504 135.432 14.4396 135.402 14.6753H123.165C123.425 18.418 126.058 20.5982 128.951 20.5982C131.237 20.5982 132.8 19.5667 134.014 18.2411L134.997 19.1248C133.494 20.7753 131.728 21.9531 128.894 21.9531C125.018 21.9531 121.661 18.8 121.661 14.1148M133.898 13.3774C133.696 10.3427 131.99 7.54218 128.605 7.54218C125.683 7.54218 123.427 10.0472 123.167 13.3774H133.9H133.898Z" fill="black"/>
<path d="M137.314 6.57225H138.732V10.8447C139.89 8.16272 142.349 6.21817 145.271 6.33668V7.92717H145.126C141.711 7.92717 138.732 10.5492 138.732 15.4421V21.6006H137.314V6.57225Z" fill="black"/>
<path d="M146.109 24.075L146.947 22.8957C148.713 24.2813 150.737 25.0173 152.907 25.0173C156.292 25.0173 158.694 23.0434 158.694 19.1821V17.002C157.421 18.8587 155.453 20.4785 152.531 20.4785C148.973 20.4785 145.443 17.7086 145.443 13.4069V13.3484C145.443 9.01734 148.973 6.2168 152.531 6.2168C155.482 6.2168 157.478 7.80877 158.694 9.57627V6.57089H160.111V19.2713C160.111 21.4515 159.417 23.162 158.231 24.3691C156.958 25.6655 155.049 26.3722 152.879 26.3722C150.42 26.3722 148.134 25.6055 146.109 24.0735M158.78 13.3762V13.3176C158.78 9.83965 155.741 7.60098 152.676 7.60098C149.611 7.60098 146.978 9.78114 146.978 13.2884V13.3469C146.978 16.7356 149.639 19.0928 152.676 19.0928C155.713 19.0928 158.78 16.7942 158.78 13.3762Z" fill="black"/>
<path d="M161.766 25.7546L162.257 24.4875C163.038 24.8709 163.675 25.048 164.773 25.048C166.307 25.048 167.319 24.1349 168.419 21.5114L161.332 6.5708H162.981L169.114 20.0087L174.437 6.5708H176L169.606 22.1289C168.304 25.282 166.799 26.4014 164.687 26.4014C163.56 26.4014 162.75 26.1951 161.766 25.7532" fill="black"/>
<g opacity="0.2">
<mask id="mask1_116_4707" style="mask-type:luminance" maskUnits="userSpaceOnUse" x="24" y="8" width="3" height="16">
<g opacity="0.2">
<path d="M26.3399 8.24609H24.1406V23.7369H26.3399V8.24609Z" fill="black"/>
</g>
</mask>
<g mask="url(#mask1_116_4707)">
<mask id="mask2_116_4707" style="mask-type:luminance" maskUnits="userSpaceOnUse" x="24" y="8" width="3" height="16">
<g opacity="0.2">
<path d="M26.3399 8.24609H24.1406V23.7369H26.3399V8.24609Z" fill="black"/>
</g>
</mask>
<g mask="url(#mask2_116_4707)">
<path d="M26.3399 8.24609L24.1406 9.53808L24.1421 9.53957V22.4434L26.3399 23.7369V8.24609Z" fill="black"/>
</g>
</g>
</g>
<path d="M26.3408 8.24611L13.1699 0.5V3.08691L24.1416 9.5381L26.3408 8.24611Z" fill="black"/>
<g opacity="0.3">
<mask id="mask3_116_4707" style="mask-type:luminance" maskUnits="userSpaceOnUse" x="19" y="10" width="3" height="17">
<g opacity="0.3">
<path d="M21.9439 10.8359H19.7461V26.3267H21.9439V10.8359Z" fill="black"/>
</g>
</mask>
<g mask="url(#mask3_116_4707)">
<mask id="mask4_116_4707" style="mask-type:luminance" maskUnits="userSpaceOnUse" x="19" y="10" width="3" height="17">
<g opacity="0.3">
<path d="M21.9439 10.8359H19.7461V26.3267H21.9439V10.8359Z" fill="black"/>
</g>
</mask>
<g mask="url(#mask4_116_4707)">
<path d="M19.7461 12.1279V19.8579V22.4449V25.0332L21.9439 26.3267V23.7383V21.1514V10.8359L19.7461 12.1279Z" fill="black"/>
</g>
</g>
</g>
<path d="M19.7456 12.1265V12.128L21.9433 10.836L21.9405 10.833L19.7441 12.1265H19.7456Z" fill="black"/>
<path d="M19.7422 12.125L19.7436 12.1265L21.94 10.8345V10.833L19.7422 12.125Z" fill="black"/>
<path d="M13.1684 5.6753L10.9707 4.38184L8.77148 3.08984V5.67383L10.9707 6.96726L13.1684 8.25931L19.7417 12.1251L21.9394 10.833L13.1684 5.6753Z" fill="black"/>
<path d="M15.3574 14.7075H15.3588L17.548 13.4213V13.4199L15.3574 14.7075Z" fill="black"/>
<path d="M15.3569 14.7075L17.546 13.4199L17.5446 13.4185L15.3555 14.7061L15.3569 14.7075Z" fill="black"/>
<g opacity="0.4">
<mask id="mask5_116_4707" style="mask-type:luminance" maskUnits="userSpaceOnUse" x="15" y="13" width="3" height="16">
<g opacity="0.4">
<path d="M17.5485 13.4214H15.3594V28.9121H17.5485V13.4214Z" fill="black"/>
</g>
</mask>
<g mask="url(#mask5_116_4707)">
<mask id="mask6_116_4707" style="mask-type:luminance" maskUnits="userSpaceOnUse" x="15" y="13" width="3" height="16">
<g opacity="0.4">
<path d="M17.5485 13.4214H15.3594V28.9121H17.5485V13.4214Z" fill="black"/>
</g>
</mask>
<g mask="url(#mask6_116_4707)">
<path d="M15.3594 14.7075V17.2783V19.8652V22.4536V25.0376V27.623L17.5485 28.9107V26.3252V23.7412V21.1529V18.5659V13.4214L15.3594 14.7075Z" fill="black"/>
</g>
</g>
</g>
<path d="M13.1695 10.8448L10.9717 9.55271L8.77253 8.2593L6.57476 6.96731L4.37695 5.67383V8.24901L6.57476 9.54249L8.77253 10.8345L10.9717 12.128L13.1695 13.4199L15.3558 14.7061L17.545 13.4185L13.1695 10.8448Z" fill="black"/>
<g opacity="0.8">
<mask id="mask7_116_4707" style="mask-type:luminance" maskUnits="userSpaceOnUse" x="0" y="8" width="3" height="16">
<g opacity="0.8">
<path d="M2.18772 8.24902H0V23.7398H2.18772V8.24902Z" fill="black"/>
</g>
</mask>
<g mask="url(#mask7_116_4707)">
<mask id="mask8_116_4707" style="mask-type:luminance" maskUnits="userSpaceOnUse" x="0" y="8" width="3" height="16">
<g opacity="0.8">
<path d="M2.18772 8.24902H0V23.7398H2.18772V8.24902Z" fill="black"/>
</g>
</mask>
<g mask="url(#mask8_116_4707)">
<path d="M2.18772 22.4536V9.53661L0 8.24902V23.7412" fill="black"/>
</g>
</g>
</g>
<g opacity="0.6">
<mask id="mask9_116_4707" style="mask-type:luminance" maskUnits="userSpaceOnUse" x="4" y="10" width="3" height="12">
<g opacity="0.6">
<path d="M6.57618 10.8228H4.37695V21.1646H6.57618V10.8228Z" fill="black"/>
</g>
</mask>
<g mask="url(#mask9_116_4707)">
<mask id="mask10_116_4707" style="mask-type:luminance" maskUnits="userSpaceOnUse" x="4" y="10" width="3" height="12">
<g opacity="0.6">
<path d="M6.57618 10.8228H4.37695V21.1646H6.57618V10.8228Z" fill="black"/>
</g>
</mask>
<g mask="url(#mask10_116_4707)">
<path d="M6.57476 19.8726V12.1162L4.37695 10.8228V21.166L6.57618 19.8726H6.57476Z" fill="black"/>
</g>
</g>
</g>
<g opacity="0.4">
<mask id="mask11_116_4707" style="mask-type:luminance" maskUnits="userSpaceOnUse" x="8" y="13" width="3" height="6">
<g opacity="0.4">
<path d="M10.9722 13.4082H8.77148V18.5806H10.9722V13.4082Z" fill="black"/>
</g>
</mask>
<g mask="url(#mask11_116_4707)">
<mask id="mask12_116_4707" style="mask-type:luminance" maskUnits="userSpaceOnUse" x="8" y="13" width="3" height="6">
<g opacity="0.4">
<path d="M10.9722 13.4082H8.77148V18.5806H10.9722V13.4082Z" fill="black"/>
</g>
</mask>
<g mask="url(#mask12_116_4707)">
<path d="M10.9726 17.2871V17.2856H10.9712V14.7017L8.77344 13.4097V18.5791V18.5806L10.9741 17.2871H10.9726Z" fill="black"/>
</g>
</g>
</g>
<path d="M0 23.7413L13.1708 31.4859V28.9121L2.18772 22.4536" fill="black"/>
<path d="M8.77148 18.5806L13.1699 21.1675V18.5792L10.9736 17.2871L8.77148 18.5806Z" fill="black"/>
<path d="M4.37695 21.166L13.1709 26.3369V23.7515L6.57618 19.8726L4.37695 21.166Z" fill="black"/>
</g>
</g>
<defs>
<clipPath id="clip0_116_4707">
<rect width="176" height="30.9859" fill="white" transform="translate(0 0.5)"/>
</clipPath>
</defs>
</svg>
