<svg width="160" height="26" viewBox="0 0 160 26" fill="none" xmlns="http://www.w3.org/2000/svg">
<path fill-rule="evenodd" clip-rule="evenodd" d="M142.725 11.9806V14.226C142.725 17.0186 143.987 18.3041 146.692 18.3041C149.308 18.3041 150.541 17.1074 150.601 14.522H148.452C148.407 15.8368 147.925 16.3975 146.722 16.3975C145.459 16.3975 144.979 15.7775 144.979 14.1817V12.0252C144.979 10.4292 145.459 9.80933 146.722 9.80933C147.925 9.80933 148.407 10.3713 148.452 11.6996H150.601C150.541 9.10068 149.308 7.90405 146.692 7.90405C143.987 7.90405 142.725 9.18824 142.725 11.9806ZM82.5932 11.9806V14.226C82.5932 17.0186 83.8547 18.3041 86.5609 18.3041C89.1768 18.3041 90.4095 17.1074 90.4697 14.522H88.3203C88.2751 15.8368 87.7935 16.3975 86.5909 16.3975C85.3282 16.3975 84.848 15.7775 84.848 14.1817V12.0252C84.848 10.4292 85.3282 9.80933 86.5909 9.80933C87.7935 9.80933 88.2751 10.3713 88.3203 11.6996H90.4697C90.4095 9.10068 89.1768 7.90405 86.5609 7.90405C83.8547 7.90405 82.5932 9.18824 82.5932 11.9806ZM73.3442 10.991C73.3442 12.8224 74.2021 13.6505 76.4719 14.0043C77.9891 14.2408 78.5309 14.5958 78.5309 15.4226C78.5309 16.1475 78.0345 16.5011 77.0425 16.5011C75.9453 16.5011 75.3897 16.0735 75.3897 15.0973H73.1951C73.1951 17.2982 74.3814 18.3041 76.9823 18.3041C79.538 18.3041 80.7857 17.2849 80.7857 15.2009C80.7857 13.3106 79.9594 12.4095 77.5691 12.0695C76.1258 11.8625 75.6002 11.5235 75.6002 10.7693C75.6002 10.1051 76.0806 9.72072 77.0123 9.72072C77.9891 9.72072 78.4558 10.1494 78.4558 11.0207H80.6504C80.6504 8.90848 79.4628 7.90405 77.0575 7.90405C74.6219 7.90405 73.3442 8.93802 73.3442 10.991ZM152.844 8.08023V18.1266H159.999V16.2213H155.098V13.9598H159.098V12.0695H155.098V9.98676H159.849V8.08023H152.844ZM138.182 8.08023V14.4182L134.709 8.08023H132.318V18.1266H134.454V11.361L138.167 18.1266H140.317V8.08023H138.182ZM122.98 8.08023V18.1266H130.136V16.2213H125.235V13.9598H129.234V12.0695H125.235V9.98676H129.985V8.08023H122.98ZM112.816 8.08023V18.1266H116.62C119.37 18.1266 120.588 16.9003 120.588 14.1669V12.0399C120.588 9.32116 119.37 8.08023 116.62 8.08023H112.816ZM115.071 9.97178H116.304C117.822 9.97178 118.333 10.5178 118.333 12.0842V14.1224C118.333 15.6889 117.822 16.2349 116.304 16.2349H115.071V9.97178ZM107.913 8.08023V14.4182L104.44 8.08023H102.05V18.1266H104.184V11.361L107.897 18.1266H110.047V8.08023H107.913ZM92.7122 8.08023V18.1266H99.8678V16.2213H94.967V13.9598H98.966V12.0695H94.967V9.98676H99.7173V8.08023H92.7122ZM68.9975 8.08023V14.4182L65.5249 8.08023H63.1348V18.1266H65.2692V11.361L68.9825 18.1266H71.1319V8.08023H68.9975ZM55.7056 8.08023L52.2784 18.1266H54.5632L55.2104 16.103H58.427L59.0728 18.1266H61.4631L58.0355 8.08023H55.7056ZM56.818 10.5918L57.8714 14.2557H55.7657L56.818 10.5918ZM43.347 8.08023V18.1266H45.6017V14.4182H46.8193L48.8484 18.1266H51.4193L49.2094 14.2112C50.4874 13.8429 51.0278 12.8963 51.0278 11.2572C51.0278 9.01186 50.0359 8.08023 47.5252 8.08023H43.347ZM45.6017 9.97178H47.2845C48.3832 9.97178 48.773 10.3404 48.773 11.2572C48.773 12.1581 48.3832 12.5279 47.2845 12.5279H45.6017V9.97178ZM33.8887 8.08023V10.0163H36.6249V18.1266H38.8797V10.0163H41.6149V8.08023H33.8887Z" fill="black"/>
<path fill-rule="evenodd" clip-rule="evenodd" d="M12.837 26C5.74727 26 0 20.1797 0 13C0 5.82026 5.74727 0 12.837 0C19.9267 0 25.6739 5.82026 25.6739 13C25.6739 20.1797 19.9267 26 12.837 26ZM9.1693 10.1999C9.1693 11.0881 9.54906 11.8891 10.2905 12.6206C10.8042 13.1277 11.4475 13.5757 12.4449 14.1344C12.4973 14.1636 12.4973 14.1636 12.5884 14.2139C12.6918 14.2709 12.8269 14.3447 12.9957 14.4367C13.1654 14.529 13.5969 14.7634 13.6125 14.772C14.036 15.0053 14.3144 15.1726 14.5345 15.3271C14.5927 15.3681 14.6463 15.4076 14.6951 15.4461C15.3697 15.9781 15.7521 16.8372 15.8373 18.0488H9.81977C9.79225 17.0404 10.1636 16.1708 10.9533 15.3962L11.0499 15.3013L10.0769 14.2944L9.98141 14.3882C8.71702 15.6283 8.21546 17.1467 8.503 18.8687L8.60077 19.4549H17.2367L17.2482 18.7639C17.2823 16.7471 16.7193 15.2576 15.5535 14.3383C15.4841 14.2836 15.4099 14.2287 15.3308 14.1729C15.1437 14.0417 14.9338 13.9098 14.6699 13.7571L14.1069 13.4435C14.0069 13.3892 14.0061 13.3885 13.8732 13.3157C13.8518 13.3037 13.8518 13.3037 13.8187 13.285C13.7343 13.2375 13.7343 13.2375 13.6018 13.1629C13.4092 13.0545 13.12 12.892 12.7341 12.6753C12.6819 12.6501 12.6451 12.6291 12.5767 12.5873L12.4595 12.5216C11.1275 11.6854 10.5633 10.9947 10.5633 10.1999C10.5633 8.89054 11.481 7.95122 12.7957 7.95122C14.1104 7.95122 15.0279 8.89075 15.0279 10.1999C15.0279 10.7049 14.8085 11.129 14.3195 11.5654L14.2188 11.6555L15.1437 12.7073L15.2435 12.6183C16.0267 11.9192 16.4221 11.1272 16.4221 10.1999C16.4221 8.11845 14.8858 6.54514 12.7957 6.54514C10.7058 6.54514 9.1693 8.11845 9.1693 10.1999Z" fill="black"/>
</svg>
