<svg width="278" height="36" viewBox="0 0 278 36" fill="none" xmlns="http://www.w3.org/2000/svg">
<path d="M1.02539 19.3963V16.563H9.41963V19.3963H6.6286V31.7445H3.73185V19.3963H1.02539Z" fill="#050505"/>
<path d="M11.1055 31.744V16.1819H13.9177V21.6582C14.9961 20.7279 16.0321 20.2204 17.2373 20.2204C19.3518 20.2204 21.0856 21.5948 21.0856 24.3224V31.744H18.2734V26.4368C18.2734 24.1532 17.9985 22.8 16.3493 22.8C15.5669 22.8 14.8903 23.2018 14.4463 23.8995C13.8754 24.7876 13.9177 25.8025 13.9177 26.9654V31.744H11.1055Z" fill="#050505"/>
<path d="M31.9211 28.445L34.2892 29.5657C33.084 31.2784 31.4982 32.0396 29.13 32.0396C25.5567 32.0396 23.252 29.4177 23.252 26.1192C23.252 23.0533 25.4721 20.22 29.0877 20.22C32.64 20.22 35.0504 22.7573 35.0504 26.3095C35.0504 26.5632 35.0293 26.6901 35.0293 26.9438H25.9796C26.2544 28.6142 27.5231 29.5445 29.13 29.5445C30.3353 29.5445 31.1387 29.2062 31.9211 28.445ZM26.1064 24.7237H32.2171C31.8365 23.4127 30.6313 22.6093 29.13 22.6093C27.7345 22.6093 26.6562 23.307 26.1064 24.7237Z" fill="#050505"/>
<path d="M202.641 31.7445V16.563H210.168V19.3963H205.453V22.1028H210.168V24.9361H205.453V31.7445H202.641Z" fill="#050505"/>
<path d="M220.725 31.7435V30.5595C219.732 31.5321 218.674 32.0396 217.258 32.0396C214.403 32.0396 211.908 29.5868 211.908 26.1403C211.908 22.6304 214.276 20.22 217.194 20.22C218.547 20.22 219.71 20.7274 220.725 21.7424V20.516H223.537V31.7435H220.725ZM217.765 22.7996C215.904 22.7996 214.742 24.2796 214.742 26.1192C214.742 28.0433 216.01 29.46 217.765 29.46C219.499 29.46 220.852 28.149 220.852 26.098C220.852 24.1316 219.541 22.7996 217.765 22.7996Z" fill="#050505"/>
<path d="M235.024 28.1702L237.244 29.6926C236.039 31.2572 234.348 32.0396 232.149 32.0396C228.322 32.0396 225.848 29.4388 225.848 26.1615C225.848 22.7996 228.47 20.22 232.191 20.22C234.39 20.22 236.251 21.1292 237.371 22.7784L235.024 24.0682C234.221 23.2224 233.438 22.7996 232.212 22.7996C230.055 22.7996 228.681 24.2585 228.681 26.2038C228.681 28.1067 230.013 29.46 232.085 29.46C233.333 29.46 234.326 29.0371 235.024 28.1702Z" fill="#050505"/>
<path d="M240.242 20.5151V16.3708H243.055V20.5151H244.725V22.9255H243.055V31.7427H240.242V22.9255H238.805V20.5151H240.242Z" fill="#050505"/>
<path d="M251.522 20.22C254.799 20.22 257.484 22.7996 257.484 26.1192C257.484 29.3754 254.968 32.0396 251.543 32.0396C248.287 32.0396 245.707 29.4388 245.707 26.1403C245.707 22.7361 248.456 20.22 251.522 20.22ZM251.564 22.8841C249.809 22.8841 248.54 24.2585 248.54 26.1192C248.54 28.0222 249.746 29.3754 251.564 29.3754C253.298 29.3754 254.651 28.1067 254.651 26.1403C254.651 24.2374 253.404 22.8841 251.564 22.8841Z" fill="#050505"/>
<path d="M261.545 20.516V21.9326C262.073 20.7697 262.983 20.22 263.913 20.22C264.505 20.22 264.864 20.3891 265.139 20.516L264.272 22.9264C264.061 22.8207 263.744 22.6938 263.448 22.6938C262.644 22.6938 262.01 23.6242 261.947 25.2734C261.925 25.8866 261.925 26.5844 261.925 27.1975V31.7435H259.113V20.516H261.545Z" fill="#050505"/>
<path d="M269.584 30.8974L265.312 20.5156H268.188L271.106 27.5566L274.341 20.5156H277.238L270.176 35.8452H267.279L269.584 30.8974Z" fill="#050505"/>
<path d="M43.0999 24.7021C43.176 26.9476 43.4805 28.8125 43.9372 29.9543C44.3939 30.9819 44.8506 31.1722 45.2693 31.1342C47.4387 31.0961 51.5491 25.3491 52.3103 23.9029C52.5006 23.5223 52.9954 23.37 53.3379 23.5603C53.7185 23.7506 53.8708 24.2454 53.6805 24.5879C52.9193 25.9961 48.885 32.5804 45.3454 32.6565C44.1275 32.6946 43.138 31.9334 42.5671 30.5633C41.7678 28.7745 41.5395 26.0723 41.5775 22.9894C41.6156 20.7059 41.8439 18.232 42.1484 15.7581L37.3529 16.0626C36.9343 16.1007 36.5917 15.7581 36.5537 15.3395C36.5156 14.9208 36.8582 14.5783 37.2768 14.5402L42.3768 14.2357C42.6813 12.2947 43.0619 10.3917 43.4805 8.641C43.8611 7.08056 44.3178 5.6343 44.7745 4.41639C45.4977 2.47536 46.5633 0.153726 48.3141 0.800739C50.826 1.75223 49.7223 6.66191 48.5424 10.9246C48.276 11.9141 47.9715 12.9037 47.629 13.9313L50.0648 13.779C50.4835 13.741 50.826 14.0835 50.864 14.5022C50.9021 14.9208 50.5596 15.2634 50.1409 15.3014L47.0962 15.4917C45.8021 19.2596 44.2417 22.7991 43.0999 24.7021ZM45.4596 15.5678L43.7089 15.682C43.4424 17.5469 43.2521 19.4499 43.176 21.2387C43.8992 19.6402 44.6984 17.6611 45.4596 15.5678ZM45.9924 14.0074C46.373 12.8656 46.7536 11.6858 47.0581 10.544C48.4282 5.71042 48.3902 2.51342 47.7812 2.247C47.2865 2.4373 45.9544 4.98729 44.9648 9.0216C44.5842 10.582 44.2417 12.3328 43.9372 14.1596L45.9924 14.0074Z" fill="#050505"/>
<path d="M53.0051 23.2547C53.614 22.6458 54.223 21.6943 54.6417 20.7047C54.7178 20.4764 54.7939 20.2861 54.87 20.0958C55.517 18.1167 54.9461 17.698 54.87 17.66C54.6417 17.5839 53.4999 17.9264 52.8148 19.9435C52.3581 21.3137 52.4342 22.6458 53.0051 23.2547ZM54.5655 23.7876C56.2401 23.7876 57.7625 23.2547 58.9424 23.2547C59.3991 23.2547 59.8939 23.2928 60.3125 23.7114C60.6551 24.054 60.7692 24.5487 60.7692 25.0055C60.7692 26.6801 59.1707 31.742 60.9976 32.998C61.4924 33.3405 63.2812 33.036 65.4125 30.2577C67.2393 27.8219 68.914 24.8532 69.4468 23.9017C69.6371 23.5211 70.0938 23.3689 70.4744 23.5592C70.855 23.7876 70.9692 24.2443 70.7789 24.5868C70.246 25.6144 68.5334 28.6211 66.6304 31.1711C64.8797 33.4547 62.2536 35.7002 60.0842 34.2159C57.1536 32.2368 59.2469 26.3375 59.2469 25.0055V24.7771C58.8663 24.6629 56.8872 25.3099 54.4894 25.3099C53.9566 25.3099 53.4618 25.2338 53.0051 25.0435C52.967 25.0435 52.929 25.0055 52.8909 25.0055C52.7006 24.9674 52.5103 24.8532 52.3961 24.739C50.6835 23.5592 50.7976 21.1995 51.3685 19.4868C52.0917 17.2413 53.7663 15.6809 55.3648 16.2137C56.811 16.7085 57.0013 18.5353 56.3163 20.5906C56.2402 20.8189 56.126 21.0473 56.0499 21.3137C55.6693 22.1891 55.1745 23.0644 54.5655 23.7876Z" fill="#050505"/>
<path d="M78.1711 19.6403C78.6658 19.1074 79.5032 19.2977 79.5032 19.9067C79.5032 20.2492 79.2748 22.8373 79.2367 23.2559C79.1987 23.7126 79.1226 24.2835 79.0845 24.9305C78.9323 27.5566 79.2367 30.7536 79.7315 31.1723C80.3785 31.7051 82.1293 30.6014 84.1845 28.0133C85.4785 26.4148 86.5822 24.7022 87.1912 23.8268C87.4195 23.4843 87.9143 23.3701 88.2568 23.5984C88.5994 23.8649 88.6755 24.3216 88.4471 24.6641C87.8762 25.5395 86.6964 27.2902 85.3643 28.9648C83.6516 31.0962 80.9494 34.1409 78.78 32.3141C77.6002 31.4006 77.5241 29.1551 77.5241 27.2141C77.2196 27.7089 76.9151 28.2417 76.6106 28.7365C75.2405 30.8297 73.2614 33.1514 70.9398 32.4663C69.151 31.9335 68.5801 29.9924 68.5801 28.1656C68.5801 26.491 68.9987 24.6641 69.8741 23.2178C71.4345 20.6298 73.7942 18.9552 76.1159 19.0313C76.839 19.0694 77.5241 19.2597 78.1711 19.6403ZM77.7524 21.2007C77.2196 20.782 76.6868 20.5917 76.0778 20.5537C74.5554 20.5156 72.5763 21.6955 71.2062 23.979C70.4831 25.1589 70.1025 26.7574 70.1025 28.1656C70.1025 29.8021 70.6733 30.7917 71.3584 31.02C72.348 31.3245 73.9084 30.1066 75.3166 27.8992C76.0778 26.7574 76.7248 25.5014 77.1815 24.4358C77.2957 24.0932 77.4099 23.7887 77.486 23.5223C77.5241 23.3701 77.6763 21.9999 77.7524 21.2007Z" fill="#050505"/>
<path d="M96.0874 22.8745C96.4299 22.0372 96.6963 21.1999 96.9247 20.4387C97.6097 18.1552 98.5232 14.3112 99.056 10.6955C99.8172 5.70971 99.4366 2.51271 98.9038 2.36047C98.3709 2.74107 97.3814 5.74777 96.8105 9.85819C96.3538 13.1694 96.0874 17.0514 96.0874 20.591C96.0493 21.3522 96.0874 22.1134 96.0874 22.8745ZM96.2776 26.1477C96.3157 26.4141 96.3157 26.7186 96.3538 26.9469C96.506 28.2409 96.7344 29.3066 97.0008 29.9917C97.4194 31.0193 97.8 31.1715 98.1426 31.1715C98.7896 31.1715 99.9694 30.3723 101.149 29.0021C103.128 26.8327 104.422 24.5111 104.803 23.8641C105.031 23.4835 105.488 23.3693 105.831 23.5977C106.211 23.788 106.325 24.2827 106.097 24.6253C105.754 25.2723 104.384 27.7081 102.291 30.0297C101.073 31.3999 99.6649 32.6939 98.1045 32.6939C96.9627 32.6558 96.0873 31.8566 95.5926 30.5245C95.3642 29.9536 95.1739 29.1924 95.0217 28.3551C93.309 31.0193 90.759 33.6454 88.171 31.9327C88.0187 31.8566 87.8665 31.7043 87.7143 31.5902C85.0882 29.2305 86.268 24.2447 88.7038 21.5425C90.1501 19.982 92.2433 19.0305 94.565 19.7917C94.603 16.4044 94.8694 12.7888 95.3262 9.62984C95.8971 5.36717 96.6582 0.685851 98.9799 0.83809C101.263 1.02839 101.225 4.45374 100.997 7.30821C100.921 8.44999 100.769 9.6679 100.578 10.9239C100.007 14.6156 99.0941 18.4977 98.409 20.8954C97.9903 22.1895 97.4575 23.5977 96.8105 25.0059C96.6582 25.3865 96.4679 25.7671 96.2776 26.1477ZM94.565 21.4283C92.7001 20.591 91.1016 21.1999 89.8456 22.6081C87.6381 24.9678 87.1434 29.0402 88.7419 30.4484C88.856 30.6006 89.0083 30.6767 89.1605 30.7529C90.4545 31.4379 92.4336 29.8775 94.3366 26.5283C94.4508 26.2999 94.603 26.0715 94.7172 25.8432C94.6792 25.4626 94.6411 25.0439 94.6411 24.6633C94.565 23.6357 94.565 22.532 94.565 21.4283Z" fill="#050505"/>
<path d="M106.061 25.2723C108.801 25.2723 110.704 24.7395 111.808 24.0164C112.836 23.3694 113.178 22.6462 113.178 22.1514C113.178 21.4664 112.569 20.6291 110.819 20.6291C109.525 20.6291 106.784 21.6947 106.061 25.2723ZM105.87 26.7566V26.9469C105.832 29.7253 107.812 30.9813 109.905 30.9813C112.303 30.9813 114.777 29.8014 116.794 28.3551C119.724 26.2619 121.323 24.2447 121.666 23.788C121.932 23.4455 122.389 23.4074 122.731 23.6358C123.074 23.9022 123.112 24.397 122.883 24.7014C122.465 25.2343 120.752 27.3656 117.669 29.5731C115.5 31.1335 112.798 32.5036 109.905 32.5036C107.203 32.5036 104.31 30.7148 104.348 26.9469C104.348 26.5283 104.386 26.1477 104.424 25.7671C104.995 20.7813 108.763 19.1067 110.819 19.1067C113.064 19.1067 114.701 20.3627 114.701 22.1514C114.663 23.3313 113.939 24.4731 112.607 25.3104C111.161 26.2238 108.916 26.8328 105.87 26.7566Z" fill="#050505"/>
<path d="M122.855 19.1083C123.236 19.1845 123.54 19.5651 123.502 19.9837C123.388 20.6307 123.312 21.9248 123.198 23.333C124.073 20.9733 125.595 18.233 128.031 19.1464C130.162 19.9837 130.695 22.2292 130.809 24.2083C130.847 24.1322 130.847 24.0941 130.886 24.0561C132.065 21.7725 134.006 18.8039 136.556 19.7934C138.612 20.6688 138.117 23.6374 137.965 25.7307C137.774 28.0904 137.774 30.0695 138.612 30.7165C139.335 31.3255 140.362 30.9829 141.694 29.5747C143.864 27.3292 145.767 24.3606 146.147 23.8277C146.376 23.4852 146.832 23.371 147.175 23.6374C147.518 23.8658 147.632 24.3225 147.365 24.665C147.023 25.1598 145.082 28.2426 142.798 30.6404C141.466 32.0486 139.449 33.3807 137.622 31.9344C135.909 30.5262 136.252 27.7479 136.442 25.5785C136.633 22.9904 136.556 21.468 135.947 21.2397C134.996 20.821 133.588 22.1912 132.218 24.7412C130.886 27.2911 130.01 30.1456 130.01 30.1456C129.896 30.4881 129.515 30.7546 129.135 30.6784C128.716 30.5643 128.45 30.1075 128.564 29.6889C128.564 29.6889 129.325 26.9867 129.287 24.4367C129.249 22.4956 128.716 21.0494 127.498 20.5927C126.623 20.2501 125.557 21.3539 124.53 24.0941C123.312 27.4814 122.703 31.8583 122.703 31.8583C122.665 32.2008 122.322 32.5053 121.98 32.5053C121.523 32.5053 121.142 32.1628 121.18 31.706C121.18 31.706 121.637 22.4195 121.98 19.7554C122.056 19.3748 122.436 19.0703 122.855 19.1083Z" fill="#050505"/>
<path d="M154.775 19.6403C155.269 19.1074 156.107 19.2977 156.107 19.9067C156.107 20.2492 155.878 22.8373 155.84 23.2559C155.802 23.7126 155.726 24.2835 155.688 24.9305C155.536 27.5566 155.84 30.7536 156.335 31.1723C156.982 31.7051 158.733 30.6014 160.788 28.0133C162.082 26.4148 163.186 24.7022 163.795 23.8268C164.023 23.4843 164.518 23.3701 164.86 23.5984C165.203 23.8649 165.279 24.3216 165.051 24.6641C164.48 25.5395 163.3 27.2902 161.968 28.9648C160.255 31.0962 157.553 34.1409 155.384 32.3141C154.204 31.4006 154.128 29.1551 154.128 27.2141C153.823 27.7089 153.519 28.2417 153.214 28.7365C151.844 30.8297 149.865 33.1514 147.543 32.4663C145.754 31.9335 145.184 29.9924 145.184 28.1656C145.184 26.491 145.602 24.6641 146.478 23.2178C148.038 20.6298 150.398 18.9552 152.719 19.0313C153.443 19.0694 154.128 19.2597 154.775 19.6403ZM154.356 21.2007C153.823 20.782 153.29 20.5917 152.681 20.5537C151.159 20.5156 149.18 21.6955 147.81 23.979C147.087 25.1589 146.706 26.7574 146.706 28.1656C146.706 29.8021 147.277 30.7917 147.962 31.02C148.951 31.3245 150.512 30.1066 151.92 27.8992C152.681 26.7574 153.328 25.5014 153.785 24.4358C153.899 24.0932 154.013 23.7887 154.09 23.5223C154.128 23.3701 154.28 21.9999 154.356 21.2007Z" fill="#050505"/>
<path d="M164.364 23.2547C164.973 22.6458 165.582 21.6943 166.001 20.7047C166.077 20.4764 166.153 20.2861 166.229 20.0958C166.876 18.1167 166.305 17.698 166.229 17.66C166.001 17.5839 164.859 17.9264 164.174 19.9435C163.717 21.3137 163.794 22.6458 164.364 23.2547ZM165.925 23.7876C167.6 23.7876 169.122 23.2547 170.302 23.2547C170.758 23.2547 171.253 23.2928 171.672 23.7114C172.014 24.054 172.129 24.5487 172.129 25.0055C172.129 26.6801 170.53 31.742 172.357 32.998C172.852 33.3405 174.641 33.036 176.772 30.2577C178.599 27.8219 180.273 24.8532 180.806 23.9017C180.996 23.5211 181.453 23.3689 181.834 23.5592C182.214 23.7876 182.329 24.2443 182.138 24.5868C181.605 25.6144 179.893 28.6211 177.99 31.1711C176.239 33.4547 173.613 35.7002 171.444 34.2159C168.513 32.2368 170.606 26.3375 170.606 25.0055V24.7771C170.226 24.6629 168.247 25.3099 165.849 25.3099C165.316 25.3099 164.821 25.2338 164.364 25.0435C164.326 25.0435 164.288 25.0055 164.25 25.0055C164.06 24.9674 163.87 24.8532 163.756 24.739C162.043 23.5592 162.157 21.1995 162.728 19.4868C163.451 17.2413 165.126 15.6809 166.724 16.2137C168.17 16.7085 168.361 18.5353 167.676 20.5906C167.6 20.8189 167.485 21.0473 167.409 21.3137C167.029 22.1891 166.534 23.0644 165.925 23.7876Z" fill="#050505"/>
<path d="M182.792 20.1351C183.896 17.6232 185.152 14.4262 186.103 11.4195C187.664 6.35756 187.892 2.62773 187.283 2.24714C186.636 2.66579 185.38 5.97697 184.429 10.4299C183.782 13.4366 183.211 16.9 182.792 20.1351ZM184.619 23.9411C185.494 23.5605 186.255 23.0657 186.902 22.5329C187.816 21.7336 188.387 20.8963 188.501 20.4776C187.283 20.097 185.913 21.315 184.619 23.9411ZM182.259 24.5881C182.221 25.0448 182.183 25.4634 182.145 25.8821L182.259 25.5396C182.449 25.0448 182.64 24.55 182.868 24.0552C184.162 21.2388 186.294 17.8135 189.262 19.1836C189.452 19.2597 189.605 19.3359 189.719 19.4881C190.823 20.7441 189.186 22.609 187.892 23.6746C187.207 24.2455 186.37 24.8164 185.456 25.2351C185.951 25.6157 186.37 26.1104 186.712 26.6433C187.74 28.1276 188.425 29.9545 188.653 30.4112C188.767 30.6015 188.843 30.7156 188.958 30.8298C189.376 31.2104 190.29 30.9821 191.736 29.4216C193.829 27.1761 195.237 24.7403 195.694 23.8649C195.923 23.5224 196.379 23.3702 196.76 23.5605C197.102 23.7888 197.255 24.2455 197.064 24.6261C196.532 25.5776 195.085 28.0895 192.878 30.4492C191.584 31.8574 189.529 33.4559 187.93 31.9336C187.664 31.7052 187.473 31.4388 187.283 31.0962C186.941 30.4492 186.37 28.8127 185.456 27.4806C184.923 26.7194 184.314 26.1485 183.744 25.9582C183.705 25.9963 183.705 26.0343 183.667 26.0724C182.526 29.003 181.917 31.8955 181.917 31.8955C181.841 32.2 181.612 32.4283 181.308 32.5044C180.851 32.5806 180.432 32.238 180.394 31.8194C180.242 30.0306 180.47 26.4149 180.965 22.2284C181.46 18.3082 182.145 13.8933 182.944 10.1255C183.934 5.44414 185.266 -0.150616 187.778 0.800873C190.442 1.82848 188.996 7.27099 187.549 11.8762C185.989 16.8239 183.744 22.1142 182.259 24.5881Z" fill="#050505"/>
</svg>
