<svg width="138" height="33" viewBox="0 0 138 33" fill="none" xmlns="http://www.w3.org/2000/svg">
<g clip-path="url(#clip0_116_4515)">
<path d="M0.67473 0.5V9.42114H3.11405V2.87486H22.947C26.8534 2.87486 29.7435 3.69086 31.3034 5.23943C32.3005 6.22743 32.7891 7.556 32.7592 9.18971C32.7371 10.396 32.5901 11.416 32.344 12.1097C29.148 9.32 24.8892 9.32 23.4385 9.32H7.13528V17.5211L14.7298 17.5023V29.784H3.11405V17.508H3.78878V15.8926H3.11405V14.328H3.78878V12.7789H0V14.328H0.67473V15.8926H0V17.508H0.67473V32.1566H17.1691V15.1194L9.5746 15.1377V11.6897H24.1296C25.7851 11.6897 28.9811 12.1891 30.9561 14.0171C29.9019 14.96 28.9975 15.1514 26.3207 15.1594H23.9028C22.7994 15.1617 22.1026 15.1594 22.0562 15.1594L20.7995 15.1194L20.7667 32.1537H23.9113C31.3249 32.1537 36.2177 28.2589 36.682 21.9891C36.9744 18.0177 35.1985 14.9731 34.013 13.6663C34.8461 12.2394 35.1798 10.2766 35.1985 9.23257C35.2398 6.93943 34.5158 5.03486 33.0431 3.57657C30.9861 1.53371 27.5881 0.5 22.947 0.5H0.67473ZM23.2366 17.5343H24.892C27.8364 17.5234 30.2271 16.8754 32.3684 15.4966C33.0708 16.4714 34.3439 18.6977 34.0951 21.732C33.6827 26.7714 29.8747 29.7811 23.9113 29.7811H23.2117L23.2366 17.5371V17.5343Z" fill="black"/>
<path d="M0.67473 0.5V9.32H0V10.9354H3.78878V9.32H3.11405V2.87486H22.947C26.8534 2.87486 29.7435 3.69086 31.3034 5.23943C32.3005 6.22743 32.7891 7.556 32.7592 9.18971C32.7184 11.4137 31.8277 15.1457 26.3207 15.1617H23.9028C22.7994 15.1646 22.1026 15.1617 22.0562 15.1617L20.7995 15.1223L20.7667 32.1566H23.9113C26.9654 32.1566 29.5196 31.5589 31.5081 30.3766L31.7485 30.2331V27.5046L30.9646 28.012C29.1559 29.1863 26.7794 29.7811 23.9085 29.7811H23.2089L23.2338 17.5371H24.8892C31.628 17.5154 35.095 14.7211 35.1985 9.23257C35.2398 6.93943 34.5158 5.03486 33.0431 3.57657C30.9861 1.53371 27.5881 0.5 22.947 0.5H0.67473Z" fill="black"/>
<path d="M49.3086 22.5126V21.54H54.1081V22.5126H52.2586V27.212H51.158V22.5126H49.3086Z" fill="black"/>
<path d="M56.7246 27.212V21.54H61.0903V22.576H57.8173V23.8806H60.9755V24.8772H57.8173V26.1572H61.0903V27.212H56.7246Z" fill="black"/>
<path d="M67.0409 27.3429C64.8742 27.3429 63.9512 25.8846 63.9512 24.4178C63.9512 22.9515 64.9262 21.4292 67.0409 21.4292C67.8412 21.4292 68.5815 21.7132 69.1822 22.2955L68.4503 22.9835C68.0595 22.6195 67.5516 22.4492 67.0432 22.4492C65.6258 22.4492 65.0354 23.4698 65.0354 24.4178C65.0354 25.3663 65.6094 26.3389 67.0432 26.3389C67.5516 26.3389 68.1172 26.1446 68.5103 25.7623L69.2613 26.5006C68.6607 27.0852 67.8876 27.3429 67.046 27.3429" fill="black"/>
<path d="M76.0992 24.928H73.2334V27.2206H72.1328V21.5486H73.2334V23.9394H76.0992V21.5486H77.189V27.2206H76.0992V24.928Z" fill="black"/>
<path d="M84.583 21.54H85.6842V27.212H84.7934L81.693 23.4372V27.212H80.5918V21.54H81.4826L84.583 25.3549V21.54Z" fill="black"/>
<path d="M91.7409 26.3623C93.1475 26.3623 93.6475 25.3183 93.6475 24.3703C93.6475 23.4218 93.0819 22.4252 91.7652 22.4018C90.5662 22.4018 89.8231 23.2515 89.8231 24.3463C89.8231 25.3023 90.3309 26.3623 91.7381 26.3623M94.7294 24.3543C94.7294 25.8366 93.8143 27.3429 91.7381 27.3429C89.6619 27.3429 88.7383 25.9081 88.7383 24.4178C88.7383 22.6275 90.0634 21.4292 91.7624 21.4292C93.7295 21.4532 94.7294 22.9035 94.7294 24.3543Z" fill="black"/>
<path d="M98.8844 26.224H101.884V27.212H97.7832V21.54H98.8844V26.224Z" fill="black"/>
<path d="M107.166 26.3623C108.573 26.3623 109.073 25.3183 109.073 24.3703C109.073 23.4218 108.508 22.4252 107.191 22.4018C105.991 22.4018 105.249 23.2515 105.249 24.3463C105.249 25.3023 105.757 26.3623 107.163 26.3623M110.155 24.3543C110.155 25.8366 109.24 27.3429 107.163 27.3429C105.088 27.3429 104.164 25.9081 104.164 24.4178C104.164 22.6275 105.489 21.4292 107.188 21.4292C109.155 21.4532 110.155 22.9035 110.155 24.3543Z" fill="black"/>
<path d="M115.948 22.3983C114.7 22.3983 113.941 23.2726 113.941 24.4492C113.941 25.3817 114.498 26.3463 115.948 26.3463C116.416 26.3463 116.798 26.248 117.265 25.892V24.8874H115.774V23.9314H118.273V26.3223C117.697 26.9703 116.981 27.3423 115.948 27.3423C113.757 27.3423 112.867 25.9394 112.867 24.4492C112.867 22.9589 113.891 21.4177 115.948 21.4177C116.741 21.4177 117.514 21.7023 118.115 22.284L117.432 22.964C117.041 22.6 116.456 22.3954 115.948 22.3954" fill="black"/>
<path d="M122.506 21.54H121.416V27.212H122.506V21.54Z" fill="black"/>
<path d="M125.908 27.212V21.54H130.274V22.576H126.999V23.8806H130.156V24.8772H126.999V26.1572H130.274V27.212H125.908Z" fill="black"/>
<path d="M135.558 22.3348C134.733 22.3348 134.351 22.6828 134.351 23.0308C134.351 23.5251 134.949 23.6548 135.651 23.7428C136.875 23.8966 138 24.1891 138 25.5491C138 26.8137 136.851 27.356 135.55 27.356C134.359 27.356 133.433 27 133.01 25.9611L133.925 25.4988C134.192 26.1228 134.851 26.3994 135.567 26.3994C136.282 26.3994 136.908 26.1657 136.908 25.5491C136.908 25.0154 136.334 24.8028 135.558 24.7148C134.367 24.5851 133.267 24.2606 133.267 22.996C133.267 21.9337 134.449 21.3994 135.523 21.3994C136.441 21.3994 137.364 21.652 137.815 22.5257L136.941 22.9646C136.741 22.64 136.189 22.332 135.558 22.332" fill="black"/>
<path d="M56.0619 13.9239H52.2398V10.6136H56.0619C57.0641 10.6136 58.5392 11.2011 58.5392 12.3805C58.5392 13.5599 57.0641 13.9239 56.0619 13.9239ZM58.9 9.52736C60.1296 8.99308 60.621 8.05536 60.621 7.04622C60.621 4.45022 58.6704 3.31079 56.0619 3.31079H49.7812V5.52393H52.2398V5.51822H56.0619C57.6489 5.51822 58.1433 6.51193 58.1433 7.09936C58.1433 7.83479 57.6325 8.47765 56.0619 8.47765H52.2398V8.4725H49.7812V16.1845H56.0619C58.8016 16.1845 61.0169 15.2839 61.0169 12.3936C61.0169 11.6234 60.4491 9.96565 58.9 9.52451" fill="black"/>
<path d="M71.4609 8.62924V16.1875H81.3743V13.7967H73.941V10.8904H81.1091V8.62695H71.4632L71.4609 8.62924Z" fill="black"/>
<path d="M81.3743 3.31079H71.4609V5.66451H81.3743V3.31079Z" fill="black"/>
<path d="M94.5403 3.31079H92.0625V16.1874H94.5403V3.31079Z" fill="black"/>
<path d="M111.532 10.9086H114.916V13.1903C113.859 14.0006 112.985 14.2212 111.928 14.2212C108.639 14.2212 107.369 12.0321 107.369 9.91776C107.369 7.25034 109.09 5.26291 111.928 5.26291C113.083 5.26291 114.406 5.72291 115.296 6.54919L116.845 5.00519C115.485 3.68234 113.725 3.03662 111.928 3.03662C107.254 3.03662 104.932 6.38405 104.932 9.91776C104.932 13.4509 106.956 16.4823 111.928 16.4823C114.272 16.4823 115.9 15.6372 117.206 14.1658V8.74062H111.532V10.9109V10.9086Z" fill="black"/>
<path d="M127.783 8.62695V16.1875H137.694V13.7967H130.258V10.8904H137.426V8.62695H127.783Z" fill="black"/>
<path d="M137.694 3.31079H127.783V5.66451H137.694V3.31079Z" fill="black"/>
</g>
<defs>
<clipPath id="clip0_116_4515">
<rect width="138" height="32" fill="white" transform="translate(0 0.5)"/>
</clipPath>
</defs>
</svg>
