<svg width="110" height="36" viewBox="0 0 110 36" fill="none" xmlns="http://www.w3.org/2000/svg">
<path d="M5.05163 3.4585L5.77887 19.8185H6.14407L7.23651 3.4585H10.8775L11.9684 19.8185H12.3336L13.0608 3.4585H17.6124V3.82315L15.9745 32.5415H10.3305L9.238 19.8185H8.87438L7.78194 32.5415H2.13788L0.5 3.82315V3.4585H5.05163Z" fill="#050505"/>
<path d="M20.3977 21.5259C20.8123 22.9352 22.9861 30.44 23.1439 33.0594C23.1519 33.1884 23.2795 33.2744 23.4039 33.2362C23.8281 33.104 24.6797 32.6391 25.096 31.0133C25.1279 30.889 25.2683 30.8253 25.3815 30.8843L25.541 30.9687C25.659 31.0308 25.8025 30.9623 25.8296 30.8317L26.3479 28.2744C26.3751 28.1438 26.5186 28.0753 26.6366 28.1375C26.761 28.2027 26.9109 28.1247 26.9284 27.9862L27.2968 25.0212C27.3096 24.9161 27.4037 24.8397 27.509 24.8476L27.5664 24.8524C27.6812 24.8604 27.7801 24.7696 27.7801 24.6533V20.9909C27.7801 20.8874 27.8598 20.7998 27.9635 20.7919C29.0177 20.709 34.255 20.1278 33.7527 16.7074C33.1945 12.9064 31.3142 5.17393 30.0447 3.83157C28.863 2.58156 27.485 2.58634 25.5489 3.01309C23.6128 3.43825 19.6417 4.94622 21.5124 7.86183C23.1487 10.4128 24.4342 13.3651 24.7292 14.0641C24.7675 14.1533 24.7356 14.2568 24.6526 14.3093C24.2364 14.5737 22.9876 15.3332 22.069 15.4957C20.9527 15.6915 18.6561 16.3476 18.9193 18.7059C19.1824 21.0641 19.1377 21.502 19.5859 21.502C19.8124 21.502 19.999 21.4495 20.1297 21.3969C20.2398 21.3524 20.3642 21.4097 20.3977 21.5244" fill="#050505"/>
<path d="M39.8058 3.4585L42.8997 18H43.2649L42.7177 3.4585H47.8147V32.5415H43.0814L39.9875 18H39.6238L40.1692 32.5415H35.0723V3.4585H39.8058Z" fill="#050505"/>
<path d="M56.6735 3.09473C61.0431 3.09473 63.2999 6.7301 63.2999 12.1839C63.2999 12.8384 63.3365 13.6012 63.4816 14.184V14.547H58.0209C57.9108 14.184 57.8392 13.6378 57.8392 12.9101V9.12981C57.8392 8.11227 57.4024 7.4578 56.5284 7.4578C55.6544 7.4578 55.1091 8.11227 55.1091 9.31134V26.5057C55.1091 27.7048 55.6559 28.3592 56.5284 28.3592C57.4005 28.3592 57.8392 27.7048 57.8392 26.6872V16.6569H63.1179V32.5408H60.5694L59.6588 28.7971H59.2951C59.04 31.0153 57.9108 32.9054 55.1807 32.9054C52.4505 32.9054 49.0996 30.3608 49.0996 21.4547V16.9101C49.0996 6.91321 52.0484 3.09632 56.6735 3.09632" fill="#050505"/>
<path d="M70.2283 28.18H70.592C71.8662 28.18 72.9588 27.2707 72.9588 25.0892V23.2723C72.9588 21.0908 71.8662 20.1815 70.592 20.1815H70.2283V28.18ZM70.2283 15.82H70.592C71.8662 15.82 72.7768 14.9108 72.7768 12.9124V10.7308C72.7768 8.73082 71.8662 7.82159 70.592 7.82159H70.2283V15.82ZM69.9731 3.46009C74.4162 3.46009 78.421 5.93144 78.421 10.9123C78.421 14.9108 76.1642 16.7293 74.051 17.6369V18C76.3078 18.7994 78.6027 20.6895 78.6027 24.7978C78.6027 29.9602 74.9616 32.5415 70.5204 32.5415H64.7676V3.4585H69.9746L69.9731 3.46009Z" fill="#050505"/>
<path d="M85.8962 26.5064C85.8962 27.7055 86.48 28.36 87.3525 28.36C88.2246 28.36 88.8099 27.7055 88.8099 26.5064V9.31207C88.8099 8.113 88.228 7.45853 87.3525 7.45853C86.4766 7.45853 85.8962 8.113 85.8962 9.31207V26.5064ZM79.8887 16.9092C79.8887 6.91236 82.6188 3.09546 87.3525 3.09546C92.0858 3.09546 94.816 6.91236 94.816 16.9092V19.0908C94.816 29.0877 92.0858 32.9046 87.3525 32.9046C82.6188 32.9046 79.8887 29.0877 79.8887 19.0908V16.9092Z" fill="#050505"/>
<path d="M99.7427 22.1815L96.1016 3.82315V3.4585H101.199L102.473 12.4379H102.838L104.112 3.4585H109.21V3.82315L105.569 22.1815V32.5415H99.7427V22.1815Z" fill="#050505"/>
</svg>
