<svg width="114" height="22" viewBox="0 0 114 22" fill="none" xmlns="http://www.w3.org/2000/svg">
<g clip-path="url(#clip0_116_4445)">
<path d="M26.844 1.15967V5.96084C25.7059 4.89014 24.1663 4.40649 22.7606 4.40649C19.1122 4.40649 16.3008 7.16978 16.3008 10.9693C16.3008 14.7688 19.0788 17.5667 22.9613 17.5667C26.844 17.5667 29.622 14.8034 29.622 10.762V1.15967H26.844ZM22.9613 14.9761C20.7189 14.9761 19.1458 13.3872 19.1458 10.9693C19.1458 8.55143 20.7524 6.99708 22.9949 6.99708C25.2374 6.99708 26.844 8.55143 26.844 10.9348C26.844 13.3872 25.2374 14.9761 22.9613 14.9761Z" fill="black"/>
<path d="M31.3281 1.15967V3.78473H36.4491V17.3248H39.361V3.78473H44.5154V1.15967H31.3281Z" fill="black"/>
<path d="M49.6701 4.40649C46.8586 4.40649 44.5156 6.54802 44.5156 10.1058V17.3248H47.2937V10.2094C47.2937 7.92967 48.1974 6.99708 49.9044 6.99708C51.0089 6.99708 51.9126 7.54979 52.3143 7.96426L53.8539 5.92638C52.9167 5.09732 51.6113 4.40649 49.6701 4.40649Z" fill="black"/>
<path d="M55.3609 4.68306V17.3251H58.139V4.68306H55.3609ZM56.7666 0.227295C55.8965 0.227295 55.1602 0.952589 55.1602 1.85071C55.1602 2.71424 55.863 3.43953 56.7666 3.43953C57.6704 3.43953 58.3063 2.71424 58.3063 1.85071C58.3063 0.952589 57.6369 0.227295 56.7666 0.227295Z" fill="black"/>
<path d="M66.4048 4.40649C62.5222 4.40649 59.7441 7.20438 59.7441 11.2457V21.2626H62.5557V16.0124C63.6937 17.0831 65.2334 17.5667 66.6391 17.5667C70.2873 17.5667 73.0988 14.8034 73.0988 11.0384C73.0988 7.23885 70.3208 4.40649 66.4048 4.40649ZM66.4048 14.9761C64.1622 14.9761 62.5557 13.4218 62.5557 11.0384C62.5557 8.62049 64.1622 7.03167 66.4382 7.03167C68.7142 7.03167 70.2873 8.62049 70.2873 11.0384C70.2873 13.4218 68.6807 14.9761 66.4048 14.9761Z" fill="black"/>
<path d="M81.399 4.40649C77.5163 4.40649 74.7383 7.20438 74.7383 11.2457V21.2626H77.5499V16.0124C78.6878 17.0831 80.194 17.5667 81.6332 17.5667C85.2815 17.5667 88.093 14.8034 88.093 11.0384C88.093 7.23885 85.2815 4.40649 81.399 4.40649ZM81.399 14.9761C79.1565 14.9761 77.5499 13.4218 77.5499 11.0384C77.5499 8.62049 79.1565 7.03167 81.4324 7.03167C83.7084 7.03167 85.2815 8.62049 85.2815 11.0384C85.2815 13.4218 83.6415 14.9761 81.399 14.9761Z" fill="black"/>
<path d="M91.3744 6.41001C89.1653 8.68966 88.9311 12.8001 91.2071 15.3907C93.416 18.154 98.6375 18.3958 101.114 15.3907L99.1729 13.6981C97.3656 15.8052 93.1483 15.3907 92.4789 11.9711H102.654C103.625 4.89013 95.2569 2.19601 91.3744 6.41001ZM92.6128 9.58778C93.6169 6.09907 98.7713 6.13366 99.7754 9.58778H92.6128Z" fill="black"/>
<path d="M109.85 4.40649C107.038 4.40649 104.695 6.54802 104.695 10.1058V17.3248H107.473V10.2094C107.473 7.92967 108.377 6.99708 110.084 6.99708C111.189 6.99708 112.059 7.54979 112.494 7.96426L114 5.92638C113.096 5.09732 111.791 4.40649 109.85 4.40649Z" fill="black"/>
<path d="M7.93246 18.7065C3.78218 18.7065 3.44747 15.7705 3.41396 14.8379C3.41396 14.3889 3.48088 13.9053 3.58131 13.3872C1.40573 13.1799 0 11.6602 0 9.48405C0 5.44276 6.49321 0.537934 12.8526 -0.256537C13.5889 -0.360184 14.2583 0.192522 14.3254 0.952404C14.4257 1.71229 13.8902 2.40311 13.1539 2.47229C7.56436 3.19758 2.67763 7.34252 2.67763 9.48405C2.67763 10.6585 3.61483 10.693 4.75277 10.693C6.35938 7.99887 9.17084 5.58099 11.8485 5.51182C15.0617 5.44276 16.4339 8.86229 14.2583 11.0384C12.5514 12.7655 8.90317 13.2836 6.39289 13.4218C6.19202 13.9399 6.09159 14.4235 6.09159 14.8379C6.09159 15.2179 6.09159 15.9778 7.93246 15.9778C10.5097 15.9778 14.2918 14.5271 16.7352 12.5583C17.3377 12.1092 18.1744 12.2129 18.6095 12.8001C19.0446 13.4218 18.9442 14.2853 18.3752 14.7343C15.4633 17.0486 11.0787 18.7065 7.93246 18.7065ZM11.9154 8.27511C10.744 8.3097 9.40511 9.24229 8.26717 10.4512C10.1416 10.2095 11.7146 9.72582 12.384 9.06958C12.5514 8.89687 12.7188 8.62052 12.5514 8.4824C12.4174 8.3097 12.1163 8.27511 11.9154 8.27511Z" fill="black"/>
</g>
<defs>
<clipPath id="clip0_116_4445">
<rect width="114" height="22" fill="white" transform="translate(0 -0.5)"/>
</clipPath>
</defs>
</svg>
